<?xml version="1.0" encoding="utf-8"?>
<!-- Generator: Adobe Illustrator 23.0.1, SVG Export Plug-In . SVG Version: 6.00 Build 0)  -->
<svg version="1.1" id="Fax" xmlns="http://www.w3.org/2000/svg" xmlns:xlink="http://www.w3.org/1999/xlink" x="0px" y="0px"
	 viewBox="0 0 314.1 314.1" style="enable-background:new 0 0 314.1 314.1;" xml:space="preserve">
<style type="text/css">
	.st0{fill:#8DC043;}
</style>
<path class="st0" d="M293,78.5C249.6,3.4,153.6-22.3,78.5,21.1C3.4,64.4-22.3,160.4,21.1,235.5c43.3,75.1,139.4,100.8,214.5,57.5
	C310.6,249.6,336.4,153.6,293,78.5z M219.8,265.8c-60.1,34.7-136.9,14.1-171.6-46S34.1,82.9,94.2,48.2s136.9-14.1,171.6,46
	S279.9,231.1,219.8,265.8z"/>
<g id="Fax_1_">
	<g>
		<path class="st0" d="M115.1,203.9v31.7h84.7v-31.7v-21.2h-84.7C115.1,182.7,115.1,203.9,115.1,203.9z M125.6,193.3h63.5v10.6
			h-63.5C125.6,203.9,125.6,193.3,125.6,193.3z M125.6,214.4h63.5V225h-63.5C125.6,225,125.6,214.4,125.6,214.4z"/>
		<polygon class="st0" points="199.7,108.6 199.7,76.9 115.1,76.9 115.1,108.6 115.1,129.8 199.7,129.8 		"/>
		<path class="st0" d="M220.9,108.6h-10.6v21.2v10.6H104.5v-10.6v-21.2H93.9c-10.6,0-21.2,10.6-21.2,21.2v52.9
			c0,10.6,10.6,21.2,21.2,21.2h10.6v-21.2v-10.6h105.8v10.6v21.2h10.6c10.6,0,21.2-10.6,21.2-21.2v-52.9
			C242,119.2,231.5,108.6,220.9,108.6z"/>
	</g>
</g>
</svg>
