<svg version="1.1" id="Location" xmlns="http://www.w3.org/2000/svg" xmlns:xlink="http://www.w3.org/1999/xlink" x="0px" y="0px"
	 viewBox="0 0 314.1 314.1" style="enable-background:new 0 0 314.1 314.1;" xml:space="preserve">
<style type="text/css">
	.st0{fill:#FFFFFF;}
</style>
<path class="st0" d="M293,78.5C249.6,3.4,153.6-22.3,78.5,21.1C3.4,64.4-22.3,160.4,21.1,235.5c43.3,75.1,139.4,100.8,214.5,57.5
	C310.6,249.6,336.4,153.6,293,78.5z M219.8,265.8c-60.1,34.7-136.9,14.1-171.6-46c-34.7-60.1-14.1-136.9,46-171.6
	c60.1-34.7,136.9-14.1,171.6,46C300.5,154.3,279.9,231.1,219.8,265.8z"/>
<path class="st0" d="M157,68.8c-35.2,0-63.9,28.7-63.9,63.9c0,43.7,57.2,107.9,59.6,110.6c2.3,2.5,6.3,2.5,8.6,0
	c2.4-2.7,59.6-66.9,59.6-110.6C220.9,97.5,192.3,68.8,157,68.8z M157,164.9c-17.7,0-32.1-14.4-32.1-32.1c0-17.7,14.4-32.1,32.1-32.1
	c17.7,0,32.1,14.4,32.1,32.1C189.2,150.4,174.8,164.9,157,164.9z"/>
</svg>
