<svg version="1.1" id="Ebene_1" xmlns="http://www.w3.org/2000/svg" xmlns:xlink="http://www.w3.org/1999/xlink" x="0px" y="0px"
	 viewBox="0 0 313.5 313.5" style="enable-background:new 0 0 313.5 313.5;" xml:space="preserve">
<style type="text/css">
	.st0{fill:#FFFFFF;}
	.st1{fill:#009453;}
	.st2{fill:#005FAA;}
	.st3{fill:none;stroke:#000000;stroke-miterlimit:10;}
</style>
<g>
	<g>
		<path d="M153.3,15.5c0.7,0.8,1,2.3,0.7,3.5c-3.4-0.8-8.1-2.5-11,0.5c-1.1,1-0.9,2.9-0.6,4c3.6,5,11.2,4.8,14.2,10
			c1.4,2.5,0.7,6.1-0.8,8.2c-2.8,3.4-7.5,3.7-12,3.7c-1.4-0.6-3.5,0-3.6-1.9l0.1-2c3.4,0.6,8.3,2.4,11.5-0.3c0.8-0.8,1.3-1.9,1.6-3
			c-0.6-9.1-14.9-5.3-14.7-15.3c0-1.1,0-2.1,0.4-3c0.2,0.1,0.4-0.1,0.3-0.4v-0.4c0.6,0.1,0.3-0.8,0.8-0.9
			C143.4,15,148.7,15,153.3,15.5z"/>
		<path d="M101.9,27.9c3.4,7.9,6.1,16.2,9.4,23.9c3-1.1,6.2-2,9.5-3.1c0.5,0.6,0.8,1.5,0.8,2.3c-4.2,1.7-8.3,3.5-12.8,4.6
			c-3.7-8.5-6.6-17.8-10.2-26.1C98.7,28,100.7,27.6,101.9,27.9z"/>
		<path d="M192.2,33.8c0.6-0.3,1.1-0.7,1.8-0.8c3-1.5,4.3-4.8,3.9-8.2c-1.5-4.9-7.1-5.6-11.5-6.5c-1.1,0.5-2.8-1.7-3,0.6
			c-2.3,8.8-4,17.9-6.1,27c4.8,0.9,9.5,3.7,14.7,1.7c2.4-1.1,3.7-3.7,4-6.4C196.4,38,194.5,35.2,192.2,33.8z M186.9,21.3
			c2.4,0.6,5.3,0.5,6.6,2.8c1.1,2,0.1,4.3-0.8,5.9c-1,1-2.3,1.6-3.8,1.7l-4.1-1C185.3,27.7,186.3,24.4,186.9,21.3z M191.7,40.6
			c-0.1,1.4-0.6,2.6-1.4,3.5c-2.5,2-5.8,0.8-8.5,0.2c0.3-3.6,1.5-7.1,2.4-10.7c2.8,0.2,5.6,1.3,7.2,3.3
			C191.7,37.9,192.3,39.5,191.7,40.6z"/>
		<path d="M233.1,38.2c-1.2-0.5-2-1.6-3.5-1.6c-7.8,7-15.3,12.8-22.7,19.6c0.9,0.7,1.5,1.7,2.9,1.4c2.4-1.7,4.7-4,6.8-5.8
			c3.3,1.7,6.3,3.7,9.1,5.7c-0.7,2.8-1.6,5.6-2.1,8.4c0.1,0.9,1.1,1.3,1.7,1.6c0.4,0.5,1.5,0.6,1.7-0.1l5-22.2
			C232.5,42.9,233.5,40.6,233.1,38.2z M226.4,53v1l-1.1-0.1l-6-3.9c2.7-2.9,6.6-5.9,9.8-8.7C228.9,45.4,227.3,49.1,226.4,53z"/>
		<path d="M73.6,44.7v0.8c-2.5,2.2-5.6,3.7-7.5,6l0.2,1c1.8,2.4,3.7,4.5,5.6,6.8c2.7-1.5,4.8-3.8,7.4-5.4c1.1-0.2,1.4,0.9,2,1.5
			c-2.1,2.5-5.1,3.7-7.4,6.1l0.5,1.3c2.3,2.5,3.8,5.1,6.1,7.4l8.5-6c0.8,0.1,1.2,1,1.6,1.6l-0.6,1c-3.6,2.4-7,5.5-10.7,7.7
			c-1.7-0.2-1.5-2.4-2.7-2.8c-4.8-6.4-10.5-12.9-15-19.1v-1c3.3-2.5,6.8-5,10.1-7.8C72.7,43.5,73.1,44.2,73.6,44.7z"/>
		<path class="st0" d="M228.9,55.9c-0.3,0.2-0.7,0.4-1.1,0.4C227.8,56,228.4,55.9,228.9,55.9z"/>
		<path d="M269.3,69.3c1.7,2.8,1.4,6.9-0.6,9.5c-0.7,0.5-1.1,1.7-2.2,1.1c-0.8-1.2-1.9-1.9-1.8-3.3c1.4-1.5,3.1-3.1,2.4-5.7
			c-1-2.2-2.9-3.9-5.5-4c-5.9,0.9-10.9,4.6-14.6,9.6c-1.3,1.8-1.9,4.3-1.4,6.5c1.1,3.2,3.9,5.2,6.9,6.1c-0.1,1-1.2,1.5-2,1.9
			c-4.8-1-7.7-5.6-8.5-10.3c0.2-7.9,6.7-13.1,13.3-15.8C260.2,62.7,266.8,64.1,269.3,69.3z"/>
		<path class="st1" d="M166.4,69.3c3.4,0.9,7.3,0,9.8,2.5c1.8-0.6,2.5,1.2,4,1.6c0.2,0.6,0.5,1.4,1.2,1.6c1.2,0.1,1,2.1,2.4,2.1
			c-1.1,1.7,1.7,2.2,0.6,3.9c-0.1,0.9,0,2,0.8,2.5l1.3,0.5c5.1-0.7,10.5-0.7,15.3,0.5c0.8,0.9,1.8,1.3,3,1.1c1.3,0.7,2,2,3.7,1.8
			c1,0.6,1.4,1.9,2.7,2c1.3,2.7,5.1,4,5.2,7.3c-0.5,0.2-1,1.3-0.3,1.9c1.4,0.2,1,1.8,0.9,2.8c-2.9,1.2,0.9,2.9-1,4.7
			c-0.5,2.5-0.4,5.9-2.2,8.3c-1,3-3.5,4.8-5.3,7.3c-1.3,0.7-2.6,1.3-4.2,0.9c-1.1-1.7-3.9-1.3-4.2-3.6c0.2-1.5-1.1-2.5-0.5-3.9
			c1.9-1.1,3.7-3.2,5.8-4c0.5-1.5,2.2-2,2.8-3.5c2.4-4.3,3.8-10.6,1.3-15.4c-2.1-2.7-5.1-4.5-8.3-5.2c-3.5,2.2-7.9-1.1-11.1,1.8
			c-1.7,0.6-3.8,0.2-5.1,1.8c-2.3,0.2-3.7,2.2-5.1,3.6c0.5,1.3-1.4,1.6-1.3,2.6c-1.6,1.6-3.1,3.2-4,5c-0.9,0.6-2.2,0.3-2.7,1.5
			c-1.6,0.2-2.3,0.6-3.9,0.1c-3.3-2.6-3.2-7.1-2.4-11.2c1.5-1.3,1.7,2,3.3,0.7c2.2-3.1,3.5-6.8,5.9-9.5c0.5-2.5,2.2-5.9-0.1-7.9
			c-3-3-7.7-1.6-11.7-1.7c-2.2,0.2-3.9,1.2-5.9,1.5c-2.6,1.5-4.5,3.5-6.6,5c0,1.1-1.4,1.3-1.6,2.1c-1.9,2.5-2.9,5.7-4.8,8.3
			c0.3,2.8-1.6,5.5-0.1,7.9c-0.1,2,0.9,3.5,1.9,5.1c0.6,1.7-2.1,1.8-0.9,2.9c-0.8,1.3-1.5,3.6-3.3,3.7c-1-1-2.4-1-3.6-1.8
			c-0.9-2.1-3.4-2.7-3.7-5.2c-2.3-0.8,1.6-5-2.4-3.9c-3.1,0.6-5.5,2.1-8.3,3.2c-1.1,1.9-3.4,1.4-4.4,3.2c-4,2.3-5.4,6.3-7.1,9.9
			c-1.9,2.2-0.4,5.5-0.9,8c0.4,1.8,2.1,2.7,3,4.3c2.5,0.6,4.8,2,7.5,1.7c0.9,0.9,1.8-0.1,2.9,0.5c2.4-0.2,4.2-0.9,6.3-1.7
			c0.8-0.6,1.5-1.2,2.4-1.3l4.1-2.6c0.9,0.3,0.4,1.3,0.4,2c-0.5,1.1-1.1,2.1-0.7,3.3c-1.5,1.4,0.3,3.6-1.8,4.6
			c-0.3,1.7-2.2,2-2.8,3.4c-2.8,1.7-5.9,2.2-9.1,2.9c-1.9,0-4.3,0.7-5.7-0.6c-3-1.2-6.4-1.4-8.8-3.4c-2.4-1.2-4.6-3.7-5.9-5.9
			c0.5-2.6-1.4-5-0.2-7.1c-1-1.7,1.4-2.4,0.7-4.2c2.5-1.1,0.4-3.8,2.8-5.1c0-2.2,2.1-3.7,3-5.7c2-2.7,3.8-5.9,6.9-7.7
			c3.1-2.9,7.3-3.7,11-5.6c2.6-0.9,6,0.5,7.6-2.1c-0.1-1.9,1-3.3,0.8-5.3c1.5-2.4,2.1-5.9,5-7.8c1.4-2.6,5.1-2.9,6.2-5.6
			c5.2-3,11.6-5.7,18.1-5.2L166.4,69.3z"/>
		<path d="M42.5,76.3c-0.1,2-2.4,3.6-3.1,5.7c4.1,3.1,8.1,6,12.6,8.9l9.1,6c0.1,1.1-0.7,2-1.4,2.8h-0.9L37.4,85.2
			c-1.6,1.5-2.6,3.6-4,5.1c-0.9,0.1-1.4-0.5-1.9-1.1c2.9-4.5,5.9-9.2,9.2-13.6C41.5,75.5,42,76.1,42.5,76.3z"/>
		<path d="M287.7,103.6v0.4l-11.2,4.5c0.8,3.5,2,6.9,3.6,10.1c4-0.9,7.5-2.7,11.4-3.8c0.8,0.9,1.3,2.3,1.1,3.4
			c-8.6,3.4-17.3,6.6-26.2,9.6c-1-0.3-1-1.8-1.4-2.7l0.3-0.8c4.1-1.7,8.1-2.6,12.2-4.6c-0.6-2.2-1.9-4.5-2.6-6.7
			c-0.3-1.3-0.6-2.6-1.6-3.5c-4.3,1.3-8.1,3.4-12.7,3.9c-0.7-0.6-0.7-2-0.9-2.7c5.3-2.3,10.9-4.3,16.3-6.3c3.7-1,6.8-2.7,10.5-3.6
			L287.7,103.6z"/>
		<path d="M23.7,114.9l-1.6,5.9l0.7,0.6c8.5,2,16.9,4,25.3,6.4c-0.1,1-0.4,2.1-0.6,3.2c-4.7-0.2-8.7-2.4-13.3-3.1
			c-4.5-0.6-8.3-2.6-12.9-3c-1,2-0.9,4.5-2.1,6.2l-1.8-0.5c-0.1-3.2,1.6-5.7,1.8-8.9c0.8-0.3,0-1.4,0.7-1.8c0.4-1.9,0.6-4.2,1.7-5.8
			C22.4,114.3,23.2,114.3,23.7,114.9z"/>
		<path class="st2" d="M190.4,117.8c2.4,0.4,5.8-1.1,7.1,1.8c1.1-0.2,1.5,0.6,1.8,1.4c2,1.6,4.8,2,5.9,4.7c2.4,0.9,3.8,3.1,5.1,5.1
			c-0.3,1.1,0.9,1.3,1.2,2.1c0.8,3.7,1.7,9-1.2,12.1c-0.3,3.1-3.2,4.4-4.4,7c-1.7,0.3-1.5,2.9-3.3,2.2c-1.8,1.3-3.4,2.6-5.3,3.9
			c-2,0.4-3.5,2-5.7,1.8c-2.6,1.5-6,1.1-9.1,1.4c-1.1,0-2.4-0.7-3.1,0.4c-2.7-0.1-5.1-1.1-7.5-1.9c-1.5-0.8-2.8-2.1-3.5-3.7
			c-0.7-0.3-0.8-1.1-0.9-1.8c-1.2-0.8-1.3-2.1-2.2-3.2c0.6-1.9,1.1-4.5,3.1-5.3c1-1.9,3.2-2.9,3.6-5.2l0.5-2l0.6,0.1
			c1.9,3.1,0,8,4,9.9c0.1,0.3,0.2,0.9,0.7,0.8c5.4,0.7,11.4-0.4,15.7-3c5.2-1.3,7.5-5.9,10.4-9.6c0.3-1.8,1.4-3.7,0.5-5.5
			c0.3-1.8-0.5-3.1-1.7-3.8c-2.9-2.2-6,0.9-9-0.7c-0.8-0.5-1.9-0.3-2.3-1.2c-2.4-1.5-5.5,1.8-6.9-1.7c-0.6-2,0-3.6,1.2-5.2
			C187,118.2,188.9,116,190.4,117.8z"/>
		<path class="st1" d="M165.2,117.4c-0.8,0.3-1.8,0.2-1.8,1.4c1.1,0.7-0.5,1-0.2,1.9c-1.1,1.4-3.9,2.3-3,4.6
			c0.2,0.5-0.2,0.8-0.1,1.3c-0.6,0.1-1.1,0.3-1.5,0.7c0,0.6,0.8,1.1,0.3,1.8c-0.8,0-1.6,0.7-1.8,1.4c0,2,2.6-0.5,2.5,1.7
			c-0.4,0.6-1.9,0.6-1.4,1.8c-0.3,0.6,0.5,0.8,0.7,1.2c-1,2-2.7,3.9-2.9,6.2c-1,0.8-0.9,2.3-1.4,3.5c-1.6,1.5,0.1,4.2-1.4,5.6
			c-0.4,1.1,0.8,3-1,3.2c-0.6,0.9,0.2,2-0.2,2.9c-1,1.6-1,3.9-2,5.6c0,0.6,0.5,0.9,0.8,1.2c0,4.7-0.7,9.1-0.3,13.7
			c-1.3,1.1,0.5,2.8-0.6,4.2c0.5,2-1,4.2,0,6.3l0.1,8.3c0.3,1.4,0.1,2.7-0.6,3.8c0.9,2.8,0.9,6,0.5,9c-1.6,1.8-2.4,4.4-4.9,5
			c-0.6,0.4-0.5,0.9-0.1,1.3v0.3c-1.1,0.4-2.3-0.8-3.4,0.1c-1.4-0.5-3.1-0.4-4.3-1.4c-1-1.9-1.4-3.8-2.4-5.7h-0.4c0,0.8,0,2,0.6,2.5
			c-0.6,2.6-2.2,5.1-3.3,7.5c-0.8,0.9-1.8,1.4-1.8,2.6c-1,1-2.8,1-3.1,2.4c-1.9,0.3-3.2,2-5.3,1.4c-2.1-1.1-5.4-1.9-5.2-4.7
			c-1.6-1-2.6-3-4-3.8c0.2-2.8-1.9-4.7-2.1-7.2c-1.9-2.6-2.1-6.1-4.3-8.4c0.2-1-0.9-1.4-1.1-2.1c-0.6-2.4-2.7-3.7-2.5-6.5
			c-1.5-1.1-1.2-3.2-2.8-4.2c0.1-2-0.7-3.3-1.9-4.8c0.7-1.6-1.3-1.8-1.1-3c-0.7-0.5-0.6-1.5-1-2.1c-1.9-2.1-1.7-5.3-3.9-7.4
			c0.3-2.3-2.4-3.3-2.5-5.6c-1.8-2-3-4.5-4.5-6.5c-1.8-2.3-2.4-5.6-4.7-7.8c-0.1-1.3-1-2-1.8-3c-2.2-3.7-4-7.5-6.7-10.7
			c0.2-1.8-1.8-2.7-2-4.2c-2-2.4-3.6-5.7-5.2-8.2v-0.6h0.5c2.9,2,3.5,5.5,6.6,7.2c1.1,0.7,1,2,2.4,2.2c0.3,1.1,1.3,1.9,2.5,1.9
			c2.4,2,3.1,4.8,5.9,5.9c-0.1,1.6,3.2,1.2,1.6,2.7c-0.2,0.4,0.2,0.9,0.7,0.7c0.9-0.4,1.6,0.4,1.8,1.2c-0.8,1.3,1.6,0.8,0.6,2.2
			c0.2,0.6,0.8,0.6,1.2,0.2c0.7-0.9,1,0.7,1.8,0.7c0.7,0.6,0.4,1.6,0.4,2.2c0.2,1.3,2.4,0.9,2.2,2.4c0.4,0.1,0.4,0.9,1,0.6
			c0.2-0.1,0.1-0.4,0.1-0.6c1.7,0.1-0.4,2,1.3,2.4c-1,2.3,1.6,1.9,2.4,3.1h0.6v0.6c-0.6,0.2-1.2,0-1.4,0.8c-0.1,0.5,0.3,0.8,0.7,0.8
			c0.9,0,0.9-1.3,2.1-0.8c-0.1,1.3,2,1.3,1.2,2.4l1.3,2.1c-0.7-0.3-1.3,0.2-1.7,0.7c1.4,1.9,4.6-0.4,5.5,2.3
			c0.3,0.9,2.7,0.5,1.8,2.1c1.1,1.8,3.6,1.1,4,3.2c2.1,1.1,4,3.2,4.6,5.2l0.9,0.2c2.3,2.8,4.1,5.6,6.6,7.9c0.4,1.2,1.9,2.3,1.8,3.8
			c2.4,0.9,2.3,2.9,3.2,4.9l0.8,0.9c0.6-0.7-0.6-1-0.4-1.8c0.7-2.9-1-6-0.2-8.9c-0.1-0.5-0.4-1-0.6-1.4c2.1-0.7,0.5-3.4,1.3-4.6
			c-0.4-1.3,1-2.3,0-3.4c1-1.2-0.7-2.6,0.4-3.7c2-1.3-0.9-3.5,1.1-4.9c-0.9-2.2,1.4-3,0.8-5.3c0.9-0.3,0.9-1.2,0.4-1.9
			c-0.3-1.8,1.4-2.7,1.3-4.4c0.6-1.7,1.9-3,2.1-4.9c1-0.5,0.8-1.3,0.9-2c1.1-1.7,2.3-2.8,2.4-4.7c1.2-0.3,1.5-1.6,1.7-2.6
			c1.4-2,1.8-4.3,4.4-5.6c2.9-4.5,6.8-8.5,10.5-12.1c2.2-2.4,4.6-5.3,7.9-6.4C164.1,117.4,164.7,117.2,165.2,117.4z"/>
		<path d="M297.3,153.3c0.8,0.9,0,2.2,0.2,3.2c0.1,3.2,0,7.5-0.3,10.6c-0.8-0.1-2.1,0.4-2.3-0.4v-9.7c-3-0.5-6.3,0-9.4-0.3l-0.3,0.3
			l-0.4,8.9c-0.5,0.7-1.5,0.3-2.2,0.4c-0.4-3-0.1-6.3-0.2-9.5c-3.6-0.3-7.2-0.5-10.8-0.3c-0.2,3.5-0.6,6.9-0.6,10.4
			c-0.8,0.2-2,0.4-2.4-0.6c0.8-4.3-0.7-9,0.3-13.2l0.5-0.5L297.3,153.3z"/>
		<path d="M43.6,160.3c-0.2,1.2,0.5,2.7-0.6,3.5c-9.3-0.2-18.7-1-28.2-1.2c-0.9-0.7-0.4-2-0.5-3.1c2.2-0.6,5.3-0.3,7.7-0.2
			C29,159.6,36,160,43.6,160.3z"/>
		<path d="M104.1,165.2c0.1,0.4-0.7,0.4-0.5,0H104.1z"/>
		<path d="M48.4,190.2c-6.2,5.4-13.5,8.5-20.1,13.7l0.3,0.4l10.6-0.4c2.7-0.7,6.2,0,9.2-0.6h4.3c0.6,1.7,2.2,4.7-1,5.1
			c-8,3.8-15.5,8.6-23.7,12.4c-1.1-0.6-0.7-1.9-1.2-2.9c6.7-4.1,13.7-7.4,20.7-11.1v-0.3c-2.4-0.1-4.8-0.2-7.3,0.2l-1.3-0.3
			c-5.3,0.1-10.7,1-15.7,0.6l-0.7-2.8c6.2-5,13.5-8.7,19.6-13.6h0.1c-1-0.5-3,0.1-4.5,0.3c-6.2,1-12.8,1.9-19,2.3
			c-0.5-0.6-0.5-1.3-0.8-1.9c0.7-1.3,2.6-0.9,3.8-1.4c8.6-0.9,16.9-2.1,25.5-3.1C47.8,187.8,48,189,48.4,190.2z"/>
		<path d="M266.3,189.4c-2.5-0.9-2,1.8-2.4,2.8c1.9,1.1,4.4,1.9,6.5,2.8c1.4,0.9,3.6,0.9,4.9,2.1l-0.7,2.4
			c-2.5,6.2-9.8,1.8-14.6,2.5c-0.3,1.1-1.5,2.4-0.3,3.3c3.6,0.3,6.9,1.4,10.7,1.3c1.6,0.2,2.8-1.3,3.8-1.8l0.7,3.3
			c1,2,2.8,3.4,5.1,3.9c2.7,0.9,5.2-0.2,7-2.1c2.6-3.2,3.4-7.4,4.5-11.1C283.2,195.8,274.6,192.6,266.3,189.4z M284.1,208.3
			c-2.6,0.8-4.7-0.4-6.2-2c-2-2.3-0.8-5.8,0.4-8.2c3.2,1.2,6.2,2,9.4,3.4C287.4,204,286.4,206.8,284.1,208.3z"/>
		<path class="st2" d="M224,202.2c3.8,0.1,7.5,1,10.9,2.4c2.1,0.3,3.5,2.8,5.9,2.3c2.3,1.3,4.9,1.8,6.9,3.5c3.5,1.7,6.7,3.7,9.7,6.3
			c1.2-0.1,1.7,1.4,2.8,1.5c3,2.6,6,4.6,8.5,7.4c2.7,1.8,4.5,4.4,5.7,7.3c-0.7,0.6-0.9-0.4-1.5-0.5c-2.9-1.5-5.7-3.1-8.2-5.5
			c-1.7-0.6-2.8-2.2-4.8-2.2c-2.7-1.3-4.5-3.2-7.4-3.8c-2.8-2.3-6-3.1-9.8-3.3c-0.4-0.6-0.5-1.4-1.3-1.4c-0.1,0.5-0.7,0.6-1.1,0.4
			c-0.5-1.2-2.7,0-2.6-1.6c-0.2-0.3-0.6-0.1-0.8-0.2c-0.7,0.5,0.1,1,0,1.6c-0.9,0.1-1-1-1.6-1.2c-2.6,0.4-5.2-0.7-7.9-0.5
			c-4,0-7.8-0.5-11.7-0.1c-1.7-0.9-3.5,0.4-5.2,0.7c-4-0.3-7.6,0.8-10.9,2.3c-2-0.5-3.2,1.2-4.9,0.9c-1.5,0.7-3.1,1.1-4.5,1.9
			c-1.5-0.2-2.5,0.9-3.9,1c-0.3,0.7-1.2,0.2-1.7,0.5c-2.9,2-6.4,2.7-9.3,5c-1.9,1.3-4.4,2-5.6,4.1c-4.6,1.5-6.8,6.3-10.2,9.2
			c-1.2,1.9-3,3-4.5,5c-1.5,1-2.7,3-4.5,3.4c-1.5,2.3-4.6,1.5-6.4,3.2c-3.6,0-6,2-9.3,2.6c-1.8,0.7-4.6,0.7-6-0.3
			c-1.7-1.4-4.1-1.9-5.3-4.2c0.2-1.7-0.6-3,0.7-4.2c-0.3-2.9,3.1-3.3,4.3-5.4c1.1-1.9,2.4-4,4.1-5.7c-0.1-1.2,1.4-1.3,1.9-1.9
			c1.4-2.1,2.6-4.1,4.7-5.2c0.5-2,2.8-1.9,3.4-3.5c2-0.7,2.9-2.9,4.9-3.6c0.8-1.7,2.9-1.4,3.6-2.8c1.5-0.6,3.1-1.3,3.7-2.8
			c0.8-0.8,2.4-0.2,2.8-1.4c1.2,0,1.6-1.4,2.7-1.7c3-0.8,4.8-3.1,7.9-3.7c1.4-0.7,2.8-0.6,4-1.6c1.2,0.2,2-0.6,2.7-1.2
			c2.8,0.3,4.2-2,6.8-1.9c2-1.5,4.5,0.5,5.9-1.6c2.5,0.1,4.9-1.3,7.4-0.9c2.1-0.1,4.4-1.4,6.2-0.3c2.7-1.1,5.3-0.4,8.2-0.6
			c0.7,0.5,1.8,1.2,2.7,0.4c0.3-0.4,0.9-0.5,1.4-0.6C216.9,201.1,220.8,200.8,224,202.2z"/>
		<path d="M62.9,235.9c1.5,1.4,1.6,3.3,1.2,5.3c-1,1-1.8,2.1-3.2,2.3c-1.9,0-3.7-0.4-4.6-1.9c-0.4-1.1-1.1-2.3-0.6-3.7
			c0.6-1.4,2-3,3.8-3C60.8,235.1,61.9,235.2,62.9,235.9z"/>
		<path d="M94.2,251c0.7,1.4-1.3,1.7-1.5,2.9l-13.6,18.4l0.7,1.2c2.3,1.9,5.2,3,7,5.2c-0.5,0.6-0.6,1.5-1.4,1.7
			c-4-2-7.4-4.9-10.9-7.9c3.2-4.7,6.4-9.2,9.8-13.3c2-3.7,4.9-6.2,7.2-9.7C92.9,249.6,93.3,250.7,94.2,251z"/>
		<path d="M233.6,264.6c-2.8-5.2-5.6-11.5-12-12.9c-6-0.6-10.7,2.8-14.9,6c1.2,2.7,2.8,4.6,4,7c4.2,5.7,7.5,11.4,11.5,17.1l0.6,0.2
			c3.4-2.3,6.9-4.2,9.7-7.4C234.8,271.8,234.6,267.9,233.6,264.6z M230.4,271.5c-1.1,3-3.3,4.5-6,6l-0.5-0.1l-12.6-19.3
			c1.5-1.8,3.7-2.9,5.9-3.4c6.8-0.4,9.8,6.3,12.4,10.6C230.4,267.2,231.1,269.3,230.4,271.5z"/>
		<path d="M186.1,296.2c-1,1-2.8,0.6-4.1,0.8c-4.4-5.9-8.3-12.5-12.3-18.3l-2.2-3.3c-0.2,3.8,0.7,8,0.9,11.6
			c0.4,3.4,1.2,7.6,1.2,11.2c-0.9,0.6-1.6,0.4-2.6,0.6c-0.9-0.4-0.2-1.4-0.7-1.9c-1-8.3-1.9-16.1-3-24.6v-2.1
			c1.2-0.3,2.7-0.8,4.2-0.4c4.8,7,9.5,14.4,14.3,21.7c0.2-4.8-1.5-10-1.4-14.8c-0.6-1.4-0.3-3-0.7-4.5c0.3-1.4-1.8-4.7,1.3-4.4
			l1.5,0.3L186.1,296.2z"/>
		<path d="M133.3,268.1c0.1-2.3-2.7-1.5-4.1-2.1c-4.3,5.8-7.3,11.3-11.5,16.9c-1.4,2.6-3.9,5.5-5.1,8.2c0.4,0.9,1.6,0.7,2.4,1.1
			c2.1-2.1,3.4-4.9,5.2-7.4l0.7-0.3c3.3,1,6.9,1.3,9.8,2.9c0,3.2,0.7,5.9,0.8,9.1c1.1,0.4,2.4,1,3.4,0.7
			C134.5,286.9,133.6,278.2,133.3,268.1z M122.5,281.7c2.4-3.9,4.7-7.3,7.2-11.1c0.4,4.1,0.7,8.8,0.7,13.4
			C127.5,283.6,125,282.7,122.5,281.7z"/>
	</g>
	<circle class="st3" cx="156.6" cy="156.7" r="155.9"/>
</g>
</svg>
