<?xml version="1.0" encoding="utf-8"?>
<!-- Generator: Adobe Illustrator 23.0.1, SVG Export Plug-In . SVG Version: 6.00 Build 0)  -->
<svg version="1.1" id="Mail" xmlns="http://www.w3.org/2000/svg" xmlns:xlink="http://www.w3.org/1999/xlink" x="0px" y="0px"
	 viewBox="0 0 314.1 314.1" style="enable-background:new 0 0 314.1 314.1;" xml:space="preserve">
<style type="text/css">
	.st0{fill:#8DC043;}
</style>
<path class="st0" d="M293,78.5C249.6,3.4,153.6-22.3,78.5,21.1C3.4,64.4-22.3,160.4,21.1,235.5c43.3,75.1,139.4,100.8,214.5,57.5
	C310.6,249.6,336.4,153.6,293,78.5z M219.8,265.8c-60.1,34.7-136.9,14.1-171.6-46S34.1,82.9,94.2,48.2s136.9-14.1,171.6,46
	S279.9,231.1,219.8,265.8z"/>
<g id="Layer_2_copy_3">
	<path class="st0" d="M221.2,93.1H92.8c-11,0-20,8.6-20,19.2v89.5c0,10.6,9,19.2,20,19.2h128.4c11,0,20-8.6,20-19.2v-89.5
		C241.2,101.7,232.2,93.1,221.2,93.1z M221.2,204H92.8c-1.6,0-3-1-3-2.2v-77.7l58.1,49c1.2,1,2.7,1.6,4.3,1.6h9.8
		c1.6,0,3.1-0.6,4.3-1.6l58.1-49v77.7C224.3,203,222.9,204,221.2,204z M157,157.9L100.6,110h113L157,157.9z"/>
</g>
</svg>
