<svg version="1.1" id="Ebene_1" xmlns="http://www.w3.org/2000/svg" xmlns:xlink="http://www.w3.org/1999/xlink" x="0px" y="0px"
	 viewBox="0 0 850.4 194.1" style="enable-background:new 0 0 850.4 194.1;" xml:space="preserve">
<style type="text/css">
	.st0{fill:#FFFFFF;}
	.st1{fill:#D8E8C0;}
	.st2{fill:#B9D588;}
	.st3{fill:#8DC043;}
</style>
<g>
	<rect x="-0.4" y="-0.3" class="st0" width="850.7" height="194.2"/>
	<path class="st1" d="M101.3,54c49.1-1.9,51.7-3.8,93.1-3.2s26.8-0.6,70.8,2.6s54.2,5.1,109.7,12.1s72.7,9.6,98.2,12.1
		s63.2,5.7,86.1,7s57.4,0.6,78.5,0s53-1.9,65.7-3.2s42.7-5.7,59.3-8.3c16.6-2.6,40.2-7.7,56.8-12.8s30.6-9.7,30.6-9.7V163H-0.1V66
		C-0.1,66.1,52.2,55.9,101.3,54z"/>
	<path class="st2" d="M101.3,69.9c49.1-1.9,51.7-3.8,93.1-3.2s26.8-0.6,70.8,2.6s54.2,5.1,109.7,12.1s72.7,9.6,98.2,12.1
		s63.2,5.7,86.1,7c23,1.3,57.4,0.6,78.5,0s53-1.9,65.7-3.2s42.7-5.7,59.3-8.3c16.6-2.6,40.2-7.7,56.8-12.8
		c16.6-5.1,30.6-9.7,30.6-9.7V179H-0.1V82C-0.1,82,52.2,71.8,101.3,69.9z"/>
	<path class="st3" d="M101.3,85.8c49.1-1.9,51.7-3.8,93.1-3.2s26.8-0.6,70.8,2.6s54.2,5.1,109.7,12.1s72.7,9.6,98.2,12.1
		s63.2,5.7,86.1,7s57.4,0.6,78.5,0s53-1.9,65.7-3.2s42.7-5.7,59.3-8.3c16.6-2.6,40.2-7.7,56.8-12.8c16.6-5.1,30.6-9.7,30.6-9.7
		v112.4H-0.1v-97C-0.1,97.9,52.2,87.7,101.3,85.8z"/>
</g>
</svg>
