<svg version="1" xmlns="http://www.w3.org/2000/svg" width="413.333" height="413.333" viewBox="0 0 310.000000 310.000000"><path d="M139.8.6c-.2.1-2.8.5-5.9.8-3.1.4-10.2 1.8-15.8 3.1-48.9 11.9-89 46.9-107.4 94-4.2 10.9-8 24-7.5 26.3.2.9 1.4-2.5 2.6-7.6C12 92.3 25.2 68.4 43.6 49.1c21.7-22.8 48.5-37.9 79.1-44.7 1.5-.3 6.7-1.1 11.6-1.7 4.8-.6 8.7-1.4 8.7-1.7 0-.6-2.7-1-3.2-.4zM144.2.5c.4.4 4.7.7 9.6.6 13.6-.3 32.2 2.3 45.7 6.5 18.2 5.7 33.8 13.6 48.5 24.8 19.6 14.9 36.7 36.2 46.7 58.1 4.2 9.1 9.8 25.6 10.8 31.7.3 1.8 1 5.8 1.5 8.8.5 3 1.1 7.2 1.2 9.2.1 2 .6 3.4 1 3.2.4-.3.6-1.5.3-2.7-.2-1.2-.7-4.2-1-6.7-2.4-20-11-43.8-22.1-61.3C263 36.1 227.2 11.4 185.3 2.9 175.4.9 142.8-1 144.2.5zM141 16.3c-1.3.7-2.9 2.5-3.4 3.9-1.5 4.4.6 7.6 6.8 10.3 6.1 2.7 8.3 5.4 6.6 8.4-1.3 2.5-4.3 3.4-8.7 2.6-3-.5-3.4-.4-3.1 1.2.4 2.1 4.4 2.6 9.9 1.2 4.3-1.1 5.9-2.7 6.5-6.7.6-3.8-1.6-6.4-8.6-10-4.3-2.3-5.6-3.5-5.8-5.6-.4-3.2 2.4-4.5 8.1-3.8 3.1.3 3.6.2 3.1-1.2-.8-2-7.7-2.2-11.4-.3z"/><path d="M181.5 18.3c-.7 2.2-5.5 24.4-5.5 25.6 0 1.6 4.7 3.2 9.9 3.4 3.4.1 4.7-.3 6.2-2.2 2.2-2.8 2.5-6.9.5-9.7-1.3-1.8-1.2-2.2 1-4.3 3.2-3.1 2.9-7.7-.6-10.2-3.3-2.4-11-4.1-11.5-2.6zm8.3 4.3c5 3.5-.3 10.9-5.5 7.6-.9-.6-.9-1.8-.1-5 1.1-4.6 2.2-5 5.6-2.6zM187 34.5c5.6 2.9 2.4 11.2-3.7 9.6-3.1-.8-3.1-.8-1.9-6.9.9-4.7 1.4-4.9 5.6-2.7zM98.2 28.2c-.6.6-.8 1.6-.3 2.2.4.6 2.2 5.1 4.1 10.1 1.8 4.9 3.9 10.2 4.6 11.7l1.4 2.7 6-2.1c3.3-1.2 6-2.8 6-3.5 0-1.3-2.6-1.1-7.7.8-2 .8-2.5 0-6.9-11.1-2.5-6.6-4.9-12-5.3-12-.4 0-1.2.5-1.9 1.2zM225.4 37.8c-1 .9-6.1 5.3-11.1 9.6-8.2 6.9-10.2 9.6-7.3 9.6.5 0 2.4-1.3 4.2-2.9l3.3-2.9 4.3 2.5c4.4 2.6 5 4.2 3.3 8.7-.8 1.8-.6 2.8.5 3.7.8.6 1.6 1 1.8.8.4-.3 4.2-16.4 6.3-26.3.4-1.8.1-3.1-.8-3.7-1.9-1.2-2.3-1.1-4.5.9zm1.2 4.4c-.2.7-1 3.4-1.6 6-.7 2.7-1.5 4.8-1.9 4.8-.3 0-1.7-.9-3.1-2l-2.5-2.1L222 45c5-4.5 5.1-4.5 4.6-2.8zM66 46.6c-2.5 2-4.6 3.9-4.8 4.3-.2.6 1.4 2.9 12.6 17.3 2 2.7 4.1 4.8 4.7 4.8 2.3 0 11.4-7.6 10.6-8.8-.5-.9-2-.3-5.1 1.9l-4.4 3.2-3.3-3.9-3.3-3.9 3.7-3.3c2.5-2.2 3.3-3.6 2.6-4.3-.7-.7-1.9-.2-4.1 1.5-1.6 1.4-3.3 2.6-3.6 2.6-1.2 0-5.5-5.5-5.6-7 0-.8 1.6-2.5 3.6-3.8 1.9-1.2 3.2-2.7 2.9-3.2-.9-1.5-1.6-1.2-6.5 2.6zM250.5 65.1c-5.1 2.7-7.4 4.7-9.1 8.1-2.9 5.6-.8 13.4 4.3 15.7 4.1 1.9 4.5.2.8-3.3-1.9-1.8-3.5-4.1-3.5-5 0-6.5 11.5-15.7 17.7-14.1 3.4.8 4.5 3.6 2.7 7-1.1 2.1-1.1 3.1-.3 4.1 1.7 2.1 2.5 1.7 3.9-1.5 2.6-6.3-2.5-13.1-9.7-13.1-1.6 0-4.6.9-6.8 2.1zM153.5 70.1c-3.5 1.1-7.7 3.3-10 5.4-2.2 1.9-4.3 3.5-4.6 3.5-1 0-4.8 7.5-5.1 10.3-.5 3.2-2.2 4.7-5.7 4.7-1.3 0-5.1 1.3-8.5 3-6.1 2.9-12.2 9.5-14.9 16-.5 1.4-1.5 3.8-2.2 5.4-1.2 2.7-1.2 7.8.1 11.8.7 2.3 5 5.3 11 7.6 4.3 1.6 5.7 1.7 10.7.7 7-1.4 10-4.1 11.5-10.3.5-2.6.9-4.8.8-5-.2-.1-2.4.9-4.9 2.3-5.1 2.9-10.5 3.4-16 1.6-7.5-2.5-7.3-11.7.2-20.4 3.6-4 13.4-9.2 15.8-8.2.9.3 1.3.8 1 1.2-1.1 1 2.7 6.4 5.5 7.9 2.6 1.3 2.8 1.3 4.3-1 1.4-2.1 1.4-3.2.4-8.4-1.2-5.7-1.1-6.2 1.4-11.3 4.9-10.1 12.8-15.1 23-14.4 5.3.4 7 2.1 6.2 6.3-.8 4.3-6.4 12.7-8.5 12.7-2 0-1.8 7.1.2 9.2 2.4 2.3 6.9.8 9.8-3.4 5.7-8.2 9.7-10.3 20.5-10.9 8.1-.4 12.4 2.9 12.7 9.9.2 5.6-2 10.3-6.8 14.2-3.6 3-4.3 4.1-3.8 5.8 1.9 6 7.4 5.9 11.7 0 3.6-5 6-15.8 4.6-20.6-2.1-7.4-11.2-12.7-22.4-13-4-.1-7.7-.6-8.2-1-.8-.9-.9-1.3-1.2-4.2 0-.8-1.1-2.4-2.3-3.5-5.7-5.3-16.5-6.9-26.3-3.9zM38.8 76.7c-2.1 2.5-7.8 11-7.8 11.7 0 1.4 2.6.4 3.8-1.4.7-1.1 1.7-2 2.2-2 .6 0 5.6 3.1 11.3 6.9 5.6 3.8 10.5 6.7 11 6.4 1.9-1.2.1-3.4-6.5-7.8-4-2.6-8.8-5.9-10.6-7.2-3.2-2.4-3.2-2.6-1.8-4.9.9-1.3 1.6-2.6 1.6-2.9 0-1.1-1.8-.4-3.2 1.2zM269.2 104.5c-6.2 2.4-11.6 4.6-11.9 4.9-.4.4-.2 1.1.5 1.8.8.8 2.6.6 7-.9l5.9-2 2.1 4.8c1.1 2.7 1.7 5.1 1.3 5.3-.4.3-3.3 1.4-6.4 2.6-4 1.5-5.4 2.5-5 3.6.3.7 1 1.4 1.7 1.4 1.4 0 24.5-8.6 25.4-9.4.3-.4 0-1.2-.6-1.8-.9-.9-2.3-.8-5.9.5-6.1 2.2-5.9 2.2-7.1-1.1-2.6-6.8-2.7-6.8 3.3-9.2 5.5-2.2 6.8-4.3 2.9-4.7-1-.1-7 1.8-13.2 4.2zM20.6 114.2c-2.3 7.6-3.6 14-3.1 14.8.9 1.5 2.5.2 2.5-2.1 0-1.1.6-2.2 1.3-2.5.7-.2 6.7.9 13.2 2.5 10.1 2.4 12.1 2.6 12.3 1.4.2-.8.2-1.6 0-1.9-.4-.3-15.9-4.4-22.2-5.9-2.6-.5-2.8-.9-2.2-4 .5-2.2.3-3.5-.4-3.5-.6 0-1.2.6-1.4 1.2z"/><path d="M159 117.7c-5 3.2-17.5 18.5-22.1 26.9-3.9 7.3-6.7 15.6-7.5 22.4-.1.8-.3 1.7-.4 2-.5 1.1-1.2 12.8-1.1 18 .1 4.6-.1 5.2-1.1 3.5-1.8-3.3-15.1-19.5-15.9-19.5-.4 0-2.2-1.6-4-3.5-1.9-1.9-4.2-3.5-5.2-3.5s-1.5-.4-1.2-1c1-1.7-1.4-5-3.2-4.3-1 .4-1.4.2-1-.4.4-.6 0-1.6-.8-2.3-.8-.7-1.5-2.2-1.5-3.3 0-1.1-.3-1.8-.6-1.4-.7.6-3.4-1.7-3.4-2.9 0-.4-1-1.6-2.2-2.8-1.3-1.2-4.5-4.5-7.1-7.4-2.6-2.9-5.1-5.2-5.4-5.2-.3 0-3-2.6-5.9-5.7-3-3.1-5.4-5.3-5.4-4.7 0 .5.4 1.4.9 2 .5.5 6.2 9.7 12.7 20.4 10.9 18 15.2 25.9 19.9 36.5.9 2.2 3.4 7.6 5.5 12 4.9 10.2 8.9 19.4 8.9 20.1-.1.3 1.5 2.3 3.4 4.5 3.9 4.3 6.4 4.8 10.7 2.2 3.3-1.9 8.5-10.7 7.4-12.5-.4-.7-.3-.8.4-.4s1.2 1.3 1.2 2.1c0 1.8 1.2 2.5 5.2 3 2.7.3 3.7-.2 5.8-2.8 2.4-3 2.5-3.4 2.7-23.1.3-23.7.9-32.5 2.6-35.4.3-.4.8-2.5 1.1-4.6.4-2.1 1.5-5.7 2.4-8 2.6-5.8 3.6-9.9 2.1-9.1-.8.5-.9 0-.4-1.6.4-1.3 1.2-2.6 1.6-2.7.5-.2.9-1.2.9-2.2 0-1 .4-2.2 1-2.5 1.4-.9 3.2-4.5 2.3-4.5-.4 0-1.9.8-3.3 1.7zM184 117.5c-1.5 1.9-2.1 5.3-.9 6.1 1.3.7 5.7 1.4 12.3 1.9 5.6.4 6.3.9 6.9 5.3 1.2 7.3-11.6 17.2-22.3 17.2-4.6 0-6.5-1.7-7.4-6.5-.6-3.2-2.6-5-2.6-2.4 0 .6-1.3 2.7-3 4.6-3.6 4.1-3.7 5.2-.5 10.3 1.8 2.9 3.5 4.2 6.2 4.9 7.1 1.9 17.3.3 24.3-3.7 14.2-8 17.2-22.1 6.8-31.1-6.6-5.6-10.7-7.9-14.7-7.9-2.2 0-4.5.5-5.1 1.3zM1.6 131.2c-.9 6.1-2 35.4-1.3 34.7.4-.3.9-7.2 1.2-15.5.2-8.2.9-16.8 1.4-19.2.4-2.3.5-4.2.1-4.2s-1 1.9-1.4 4.2zM308.8 152.7c1.4 31.9-11.6 70.7-32.6 97.3-9.1 11.4-27.1 27.9-38.2 34.8-11.9 7.5-36.3 17.8-46.2 19.7-2.1.4-3.8 1.1-3.8 1.5 0 2.2 28.1-7.7 39.6-14 20.8-11.4 34.4-22.9 50.5-42.7 14.1-17.4 26.2-46 30.3-71.6 1.5-9.1 2.1-32.7.9-32.7-.4 0-.6 3.5-.5 7.7zM266.6 151.7c-.3.4-.6 3.5-.6 7 0 5 .3 6.3 1.5 6.3.9 0 1.5-.6 1.4-1.3-.1-.6-.1-2.9 0-5l.1-3.8 5.3.3 5.2.3.2 4c.2 6 .2 6 1.2 4.9.5-.5 1.2-2.7 1.5-4.9.3-2.2.5-4.1.6-4.2 0-.1 2-.1 4.5 0l4.5.2v5.4c0 4.5.2 5.2 1.4 4.2.9-.8 1.3-3.1 1.2-7.4l-.1-6.1-13.6-.3c-7.5-.1-13.9.1-14.3.4zM15.8 157.8c-2.6.5-2.2 3.2.5 3.2 1.2.1 7.8.3 14.5.7 11.7.5 12.4.4 12-1.3-.3-2-.3-2-16.8-2.6-4.7-.2-9.3-.2-10.2 0zM.5 168.2c.2.7.6 3.5.9 6.3 2.3 22.2 10.6 44.9 23.8 65C48.4 275 82.3 298 125 307.1c8.7 1.9 13.8 2.3 29 2.3 17.6.1 33-1.5 33-3.4 0-.4-2.6-.1-5.7.7-8.5 2-35.8 2.5-47.3.8-25.6-3.8-48.6-13.1-70-28.3-10.6-7.5-28.7-26.4-36.3-37.8C16.2 224 8 204.8 4.5 186.8c-.9-4.6-1.8-9-2-9.8-.2-.8-.4-3.4-.4-5.8-.1-2.3-.5-4.2-1.1-4.2-.5 0-.8.6-.5 1.2z"/><path d="M34 186.1c-2.5.3-7.1 1-10.2 1.3-4 .5-5.8 1.2-5.8 2.2 0 1.7 2.4 1.7 14.3 0 4.8-.7 8.7-1.1 8.7-.9 0 .1-4.2 3-9.2 6.4-5.1 3.4-9.4 6.3-9.6 6.4-.1.1 0 1 .4 1.9.5 1.4 2.1 1.5 11.5 1.2 6-.3 10.9-.2 10.9.2s-4.2 2.9-9.4 5.6c-7.4 3.9-9.2 5.3-8.9 6.7.5 1.6 1.7 1.1 10.7-3.7 5.5-3 11.4-6 12.9-6.6 2.1-.7 2.7-1.6 2.5-3.2-.3-2-.7-2.1-12.8-1.8l-12.5.3 10.1-6.7c8.1-5.3 10.1-7 9.6-8.6-.5-2-3.4-2.2-13.2-.7zM261.6 188.5c-.6 1.6 5.8 5.5 8.9 5.5 2 0 1.9 3.4-.1 5.4-1.3 1.3-2.8 1.5-7.6 1-5.5-.6-6-.5-5.6 1.2.4 2.3 9.8 4 12.9 2.4 1.6-.9 1.9-.7 1.9.8 0 2.2 2.6 4.8 5.5 5.4 3.8.8 7.2-1.9 9.3-7.4 1.1-2.9 1.7-5.6 1.4-5.9-.6-.5-24.9-9.9-25.7-9.9-.2 0-.5.7-.9 1.5zm19.9 9.9c3.5 1.5 3.8 3 1.2 6.3-2.8 3.6-9.5-.5-8.3-5.2.7-2.9 2.2-3.1 7.1-1.1zM187.6 200c-4.7.9-8.9 1.8-9.1 1.9-.3.1-1 .3-1.7.5-18.6 5.7-38.4 19.5-47.8 33.2-1.7 2.4-3.5 4.4-4 4.4-1.2 0-3 5.8-2.4 7.5 1.5 3.9 8.6 5.8 14.1 3.8 1.5-.6 4.8-1.7 7.3-2.4 3.5-1 6.5-3.3 14.1-10.8 5.2-5.3 12.1-11.1 15.1-12.9 5-3 20.8-9.5 20.8-8.6 0 .2 1.9-.4 4.3-1.2 6.5-2.3 10.4-2.8 21.2-2.6 12 .1 19.7 1.1 21.1 2.5.4.4 1.6.7 2.6.7 2.2 0 16.8 7.2 21.3 10.6 1.7 1.2 4 2.7 5.3 3.3 2.3 1.2 2.3 1.2.8-1.6-3.4-6.5-21.1-19-35.1-24.7-12.5-5.1-32.1-6.6-47.9-3.6zM57.8 232.7c-2.3.6-3.4 4.9-1.8 6.8 2 2.5 5.9 1.9 7-1.1.6-1.4.8-3 .5-3.5-1-1.5-3.9-2.6-5.7-2.2zM83.9 255.7c-7.8 10.5-10.3 14.3-9.8 14.7 4.2 3.6 10.3 7.5 11 7 1.6-.9 1-1.8-2.6-4.2-1.9-1.2-3.5-2.8-3.5-3.5 0-.6 3.2-5.4 7.1-10.6 6.2-8.3 7.8-12.1 5.1-12.1-.5 0-3.8 3.9-7.3 8.7zM210.2 251.6c-2.9 1.4-5.2 3.1-5.2 3.7 0 .8 9.8 16.6 14.7 23.6.5.8 5.6-2.3 9-5.5 2.6-2.5 3.3-3.9 3.3-7.1 0-7.1-8.2-17.3-13.9-17.3-1.5 0-5 1.2-7.9 2.6zm11.2 3.3c3.2 2.8 6.6 8.9 6.6 12.1 0 3.1-3 7-5.3 7-1.6 0-12.7-16.2-12.7-18.4 0-1.8 4.8-3.6 7.5-2.9 1.1.3 2.8 1.3 3.9 2.2zM128.2 263.7c-1.5.6-16.2 22.5-16.2 24.2 0 2.3 2.6 1 4.8-2.4 2.4-3.7 3.7-4.1 9.2-2.2 2.3.8 3.5 1.9 3.6 3.2.3 7.3.4 7.6 2.1 7.3 1.6-.3 1.7-1.3 1.4-7.8-.2-4.1-.5-8.6-.6-10-.2-1.4-.4-4.6-.4-7.1-.1-4.6-1.2-6.1-3.9-5.2zm.7 12.4l.2 5.1-2.8-.6c-4.5-1.2-4.8-2.2-1.7-7 1.6-2.5 3.1-4.1 3.4-3.5.4.5.7 3.2.9 6zM177.9 265.7c-.2 1.3.8 12.9 1.7 19.3.4 3-.5 2-6.5-7.3-4.8-7.3-7.6-10.7-8.9-10.7-2.8 0-2.9.5-2.1 6.8.4 3.1 1 8.2 1.4 11.2.9 8.7 1.6 11.1 2.8 10.7 1.4-.4 1.4-2.9.4-14.2-.5-4.3-.5-7.6-.1-7.2.4.4 3.5 4.8 6.8 9.9 4.3 6.4 6.9 9.4 8.4 9.6 1.6.3 2.2-.2 2.2-1.5 0-2-1.8-16.5-2.4-19.8-.3-1.1-.5-3.2-.5-4.8-.1-1.7-.6-2.7-1.6-2.7-.8 0-1.6.3-1.6.7z"/></svg>