<?xml version="1.0" encoding="utf-8"?>
<!-- Generator: Adobe Illustrator 23.0.2, SVG Export Plug-In . SVG Version: 6.00 Build 0)  -->
<svg version="1.1" id="Ebene_1" xmlns="http://www.w3.org/2000/svg" xmlns:xlink="http://www.w3.org/1999/xlink" x="0px" y="0px"
	 viewBox="0 0 257.7 258" style="enable-background:new 0 0 257.7 258;" xml:space="preserve">
<style type="text/css">
	.st0{fill:#FFFFFF;stroke:#000000;stroke-miterlimit:10;}
	.st1{fill:#FFFFFF;}
	.st2{fill:#009453;}
	.st3{fill:#005FAA;}
</style>
<g>
	<circle class="st0" cx="128.5" cy="129" r="127.6"/>
	<path d="M125.8,13.5c0.6,0.6,0.8,1.9,0.6,2.9c-2.8-0.6-6.6-2.1-9,0.4c-0.9,0.8-0.7,2.4-0.5,3.3c2.9,4.1,9.2,3.9,11.6,8.2
		c1.1,2.1,0.6,5-0.6,6.7c-2.3,2.8-6.2,3-9.8,3c-1.1-0.5-2.8,0-2.9-1.5l0.1-1.7c2.8,0.5,6.8,2,9.4-0.2c0.6-0.6,1.1-1.5,1.3-2.5
		c-0.5-7.4-12.2-4.3-12-12.5c0-0.9,0-1.8,0.3-2.5c0.2,0.1,0.3-0.1,0.2-0.3v-0.3c0.5,0.1,0.2-0.6,0.6-0.7
		C117.7,13.1,122.1,13.1,125.8,13.5z"/>
	<path d="M83.7,23.6c2.8,6.5,5,13.3,7.7,19.6c2.4-0.9,5.1-1.7,7.8-2.6c0.4,0.5,0.6,1.2,0.6,1.9c-3.4,1.4-6.8,2.9-10.5,3.8
		c-3-6.9-5.4-14.6-8.4-21.4C81.1,23.7,82.8,23.4,83.7,23.6z"/>
	<path d="M157.7,28.4c0.5-0.2,0.9-0.6,1.5-0.6c2.4-1.2,3.5-3.9,3.2-6.7c-1.2-4-5.8-4.5-9.4-5.3c-0.9,0.4-2.3-1.4-2.4,0.5
		c-1.9,7.2-3.2,14.7-5,22.1c3.9,0.7,7.8,3,12,1.4c1.9-0.9,3-3,3.2-5.3C161.1,31.9,159.5,29.6,157.7,28.4z M153.3,18.2
		c1.9,0.5,4.3,0.4,5.4,2.3c0.9,1.6,0.1,3.5-0.6,4.8c-0.8,0.8-1.9,1.3-3.1,1.4l-3.3-0.8C152,23.4,152.8,20.7,153.3,18.2z M157.3,34
		c-0.1,1.1-0.5,2.2-1.1,2.9c-2,1.6-4.8,0.6-7,0.2c0.2-3,1.2-5.8,1.9-8.8c2.3,0.2,4.6,1,5.9,2.7C157.3,31.8,157.8,33.1,157.3,34z"/>
	<path d="M191.2,32.1c-1-0.4-1.6-1.3-2.8-1.3c-6.4,5.7-12.5,10.5-18.6,16c0.7,0.6,1.2,1.4,2.4,1.1c1.9-1.4,3.8-3.3,5.6-4.7
		c2.7,1.4,5.2,3,7.5,4.6c-0.6,2.3-1.3,4.5-1.7,6.9c0.1,0.7,0.9,1,1.4,1.3c0.3,0.4,1.2,0.5,1.4-0.1l4.1-18.2
		C190.6,35.9,191.5,34,191.2,32.1z M185.7,44.1v0.8l-0.9-0.1l-4.9-3.2c2.2-2.4,5.4-4.8,8-7.1C187.7,37.9,186.4,40.9,185.7,44.1z"/>
	<path d="M60.6,37.3V38c-2,1.8-4.6,3-6.2,4.9l0.2,0.8c1.5,2,3,3.7,4.6,5.6c2.2-1.2,3.9-3.1,6.1-4.4c0.9-0.2,1.1,0.7,1.6,1.2
		c-1.7,2.1-4.1,3-6.1,5l0.4,1c1.9,2.1,3.1,4.2,5,6.1l7-4.9c0.6,0.1,1,0.8,1.3,1.3l-0.5,0.8c-2.9,2-5.8,4.5-8.8,6.3
		c-1.4-0.2-1.2-2-2.2-2.3c-3.9-5.3-8.6-10.5-12.2-15.6v-0.8c2.7-2.1,5.6-4.1,8.3-6.4C59.9,36.4,60.2,36.9,60.6,37.3z"/>
	<path class="st1" d="M187.7,46.5c-0.2,0.2-0.6,0.3-0.9,0.3C186.8,46.6,187.3,46.5,187.7,46.5z"/>
	<path d="M220.8,57.5c1.4,2.3,1.1,5.7-0.5,7.7c-0.6,0.4-0.9,1.4-1.8,0.9c-0.6-1-1.5-1.5-1.5-2.7c1.1-1.2,2.5-2.6,1.9-4.6
		c-0.8-1.8-2.4-3.2-4.5-3.3c-4.9,0.7-8.9,3.8-11.9,7.8c-1.1,1.4-1.5,3.5-1.1,5.3c0.9,2.6,3.2,4.2,5.7,5c-0.1,0.8-1,1.2-1.6,1.5
		c-3.9-0.8-6.3-4.5-7-8.5c0.2-6.5,5.5-10.7,10.9-12.9C213.3,52.1,218.7,53.2,220.8,57.5z"/>
	<path class="st2" d="M136.5,57.5c2.8,0.7,6,0,8,2.1c1.5-0.5,2,1,3.2,1.3c0.2,0.5,0.4,1.1,1,1.3c1,0.1,0.8,1.8,1.9,1.8
		c-0.9,1.4,1.4,1.8,0.5,3.2c-0.1,0.7,0,1.6,0.6,2.1l1.1,0.4c4.1-0.6,8.6-0.6,12.5,0.4c0.6,0.7,1.5,1,2.4,0.9c1.1,0.6,1.6,1.6,3,1.4
		c0.8,0.5,1.1,1.5,2.2,1.6c1.1,2.2,4.1,3.3,4.2,6c-0.4,0.2-0.8,1-0.2,1.5c1.1,0.2,0.8,1.4,0.7,2.3c-2.4,1,0.7,2.4-0.8,3.8
		c-0.4,2.1-0.3,4.9-1.8,6.8c-0.8,2.5-2.8,3.9-4.4,6c-1.1,0.6-2.1,1-3.4,0.7c-0.9-1.4-3.2-1-3.4-3c0.2-1.2-0.9-2.1-0.4-3.2
		c1.5-0.9,3-2.6,4.8-3.3c0.4-1.2,1.8-1.7,2.3-2.9c1.9-3.5,3.1-8.7,1.1-12.6c-1.7-2.2-4.1-3.7-6.8-4.2c-2.8,1.8-6.5-0.9-9.1,1.4
		c-1.4,0.5-3.1,0.2-4.1,1.4c-1.9,0.2-3,1.8-4.1,3c0.4,1-1.1,1.3-1.1,2.2c-1.3,1.3-2.5,2.6-3.2,4.1c-0.7,0.5-1.8,0.2-2.2,1.2
		c-1.3,0.2-1.9,0.5-3.2,0.1c-2.7-2.2-2.6-5.8-1.9-9.2c1.2-1,1.4,1.6,2.7,0.6c1.8-2.6,2.8-5.6,4.9-7.7c0.4-2.1,1.8-4.8-0.1-6.5
		c-2.4-2.5-6.3-1.3-9.6-1.4c-1.8,0.2-3.2,1-4.9,1.2c-2.1,1.2-3.6,2.9-5.4,4.1c0,0.9-1.1,1-1.3,1.8c-1.5,2.1-2.4,4.6-3.9,6.8
		c0.2,2.3-1.3,4.5-0.1,6.5c-0.1,1.6,0.7,2.9,1.5,4.2c0.5,1.4-1.7,1.4-0.7,2.4c-0.6,1-1.2,3-2.7,3c-0.8-0.8-1.9-0.8-2.9-1.4
		c-0.7-1.8-2.8-2.2-3-4.2c-1.9-0.6,1.3-4.1-1.9-3.2c-2.5,0.5-4.5,1.8-6.8,2.6c-0.9,1.5-2.8,1.1-3.6,2.6c-3.2,1.9-4.5,5.2-5.8,8.1
		c-1.5,1.8-0.3,4.5-0.7,6.5c0.3,1.4,1.7,2.2,2.4,3.5c2,0.5,3.9,1.7,6.2,1.4c0.7,0.7,1.5-0.1,2.4,0.4c1.9-0.2,3.4-0.7,5.2-1.4
		c0.6-0.5,1.2-1,1.9-1l3.3-2.2c0.7,0.2,0.3,1,0.3,1.6c-0.4,0.9-0.9,1.8-0.6,2.7c-1.2,1.1,0.2,3-1.5,3.8c-0.2,1.4-1.8,1.7-2.3,2.8
		c-2.3,1.4-4.9,1.8-7.5,2.4c-1.5,0-3.5,0.6-4.7-0.5c-2.4-1-5.3-1.1-7.2-2.8c-1.9-1-3.7-3-4.9-4.9c0.4-2.2-1.1-4.1-0.2-5.8
		c-0.8-1.4,1.1-2,0.6-3.4c2-0.9,0.3-3.1,2.3-4.2c0-1.8,1.7-3,2.4-4.6c1.6-2.2,3.1-4.9,5.7-6.3c2.5-2.4,6-3,9-4.6
		c2.1-0.7,4.9,0.4,6.2-1.8c-0.1-1.5,0.8-2.7,0.6-4.3c1.2-2,1.7-4.9,4.1-6.4c1.1-2.2,4.1-2.4,5.1-4.5c4.3-2.5,9.5-4.6,14.8-4.2
		L136.5,57.5z"/>
	<path d="M35.2,63.2c-0.1,1.7-1.9,3-2.5,4.6c3.3,2.6,6.6,4.9,10.3,7.3l7.5,4.9c0.1,0.9-0.6,1.6-1.1,2.3h-0.7L30.9,70.5
		c-1.3,1.2-2.1,3-3.2,4.2c-0.7,0.1-1.1-0.4-1.5-0.9c2.4-3.7,4.9-7.5,7.5-11.1C34.3,62.6,34.7,63,35.2,63.2z"/>
	<path d="M235.8,85.6v0.3l-9.2,3.7c0.6,2.9,1.6,5.7,2.9,8.3c3.2-0.7,6.2-2.2,9.3-3.1c0.6,0.7,1.1,1.9,0.9,2.8
		c-7.1,2.8-14.2,5.4-21.4,7.8c-0.8-0.2-0.8-1.4-1.1-2.2l0.2-0.6c3.3-1.4,6.6-2.2,10-3.8c-0.5-1.8-1.5-3.7-2.1-5.5
		c-0.2-1-0.5-2.2-1.3-2.9c-3.5,1-6.6,2.8-10.4,3.2c-0.6-0.5-0.6-1.7-0.7-2.2c4.4-1.9,8.9-3.5,13.4-5.2c3-0.8,5.6-2.2,8.6-3
		L235.8,85.6z"/>
	<path d="M19.7,94.8l-1.3,4.9l0.6,0.5c7,1.6,13.9,3.3,20.7,5.3c-0.1,0.8-0.3,1.8-0.5,2.6c-3.8-0.2-7.1-2-10.9-2.6
		c-3.6-0.5-6.8-2.2-10.5-2.5c-0.8,1.6-0.7,3.7-1.7,5.1l-1.5-0.4c-0.1-2.6,1.3-4.6,1.5-7.3c0.6-0.2,0-1.1,0.6-1.4
		c0.3-1.5,0.5-3.4,1.4-4.7C18.7,94.3,19.3,94.3,19.7,94.8z"/>
	<path class="st3" d="M156.2,97.2c1.9,0.3,4.8-0.9,5.8,1.4c0.9-0.2,1.2,0.5,1.5,1.1c1.6,1.3,3.9,1.7,4.9,3.8
		c1.9,0.7,3.1,2.6,4.1,4.2c-0.2,0.9,0.7,1,1,1.8c0.6,3,1.4,7.3-1,9.9c-0.2,2.6-2.6,3.6-3.6,5.7c-1.4,0.2-1.2,2.4-2.7,1.8
		c-1.5,1-2.8,2.2-4.3,3.2c-1.6,0.3-2.8,1.7-4.7,1.4c-2.1,1.2-4.9,0.9-7.5,1.1c-0.9,0-1.9-0.6-2.5,0.3c-2.2-0.1-4.1-0.9-6.2-1.5
		c-1.2-0.6-2.3-1.8-2.8-3c-0.6-0.2-0.6-0.9-0.7-1.4c-1-0.6-1.1-1.8-1.8-2.6c0.5-1.5,0.9-3.7,2.5-4.3c0.8-1.5,2.6-2.4,2.9-4.2
		l0.4-1.6l0.5,0.1c1.5,2.6,0,6.5,3.2,8.1c0.1,0.2,0.2,0.7,0.6,0.6c4.5,0.6,9.3-0.3,12.8-2.5c4.2-1,6.2-4.9,8.5-7.8
		c0.2-1.4,1.1-3,0.4-4.5c0.2-1.4-0.4-2.6-1.4-3.1c-2.4-1.8-4.9,0.7-7.4-0.6c-0.6-0.4-1.5-0.2-1.9-1c-1.9-1.2-4.5,1.4-5.7-1.4
		c-0.5-1.6,0-3,1-4.2C153.4,97.5,154.9,95.7,156.2,97.2z"/>
	<path class="st2" d="M135.5,96.9c-0.6,0.2-1.5,0.2-1.5,1.1c0.9,0.6-0.4,0.8-0.2,1.5c-0.9,1.1-3.2,1.9-2.4,3.8
		c0.2,0.4-0.2,0.6-0.1,1c-0.5,0.1-0.9,0.2-1.2,0.6c0,0.5,0.6,0.9,0.2,1.4c-0.6,0-1.3,0.6-1.5,1.1c0,1.7,2.1-0.4,2,1.4
		c-0.3,0.5-1.5,0.5-1.1,1.4c-0.2,0.5,0.4,0.6,0.6,1c-0.8,1.6-2.2,3.2-2.4,5.1c-0.8,0.6-0.7,1.9-1.1,2.9c-1.3,1.2,0.1,3.4-1.1,4.5
		c-0.3,0.9,0.6,2.5-0.8,2.6c-0.5,0.7,0.2,1.6-0.2,2.4c-0.8,1.3-0.8,3.2-1.6,4.5c0,0.5,0.4,0.7,0.6,1c0,3.8-0.6,7.4-0.2,11.2
		c-1.1,0.9,0.4,2.3-0.5,3.4c0.4,1.7-0.8,3.4,0,5.2l0.1,6.8c0.2,1.1,0.1,2.2-0.5,3.1c0.7,2.3,0.7,4.9,0.4,7.3c-1.3,1.4-1.9,3.6-4,4.1
		c-0.5,0.3-0.4,0.7-0.1,1v0.2c-0.9,0.3-1.9-0.6-2.8,0.1c-1.1-0.4-2.5-0.3-3.5-1.1c-0.8-1.5-1.1-3.1-1.9-4.6h-0.3
		c0,0.6,0,1.6,0.5,2.1c-0.5,2.2-1.8,4.1-2.7,6.1c-0.6,0.7-1.5,1.1-1.5,2.2c-0.8,0.8-2.3,0.8-2.5,2c-1.5,0.2-2.6,1.7-4.4,1.1
		c-1.7-0.9-4.4-1.5-4.2-3.8c-1.3-0.8-2.1-2.5-3.2-3.1c0.2-2.3-1.5-3.8-1.7-5.9c-1.5-2.2-1.7-5-3.5-6.9c0.2-0.8-0.7-1.1-0.9-1.8
		c-0.5-2-2.2-3-2-5.3c-1.2-0.9-1-2.6-2.3-3.4c0.1-1.6-0.6-2.7-1.5-3.9c0.6-1.3-1.1-1.4-0.9-2.5c-0.6-0.4-0.5-1.2-0.8-1.8
		c-1.5-1.8-1.4-4.3-3.2-6.1c0.2-1.9-1.9-2.7-2-4.5c-1.5-1.7-2.4-3.7-3.6-5.3c-1.5-1.9-1.9-4.5-3.8-6.4c-0.1-1-0.8-1.6-1.5-2.5
		c-1.8-3-3.2-6.1-5.5-8.8c0.2-1.4-1.5-2.2-1.6-3.4c-1.6-2-2.9-4.6-4.2-6.7v-0.5h0.4c2.4,1.7,2.8,4.5,5.4,5.9
		c0.9,0.6,0.8,1.6,1.9,1.8c0.2,0.9,1.1,1.5,2,1.5c1.9,1.6,2.5,3.9,4.9,4.8c-0.1,1.3,2.6,1,1.3,2.2c-0.2,0.3,0.2,0.7,0.6,0.6
		c0.7-0.3,1.3,0.3,1.5,1c-0.6,1,1.3,0.6,0.5,1.8c0.2,0.5,0.6,0.5,1,0.2c0.6-0.7,0.8,0.6,1.5,0.6c0.6,0.5,0.3,1.3,0.3,1.8
		c0.2,1,1.9,0.7,1.8,2c0.3,0.1,0.3,0.7,0.8,0.5c0.2-0.1,0.1-0.3,0.1-0.5c1.4,0.1-0.3,1.7,1.1,2c-0.8,1.9,1.3,1.5,1.9,2.6h0.5v0.5
		c-0.5,0.2-1,0-1.1,0.6c-0.1,0.4,0.2,0.6,0.6,0.6c0.7,0,0.7-1,1.7-0.6c-0.1,1,1.6,1,1,2l1.1,1.8c-0.6-0.2-1.1,0.2-1.4,0.6
		c1.1,1.5,3.7-0.3,4.5,1.9c0.2,0.7,2.2,0.4,1.5,1.8c0.9,1.4,2.9,0.9,3.2,2.6c1.7,0.9,3.2,2.6,3.7,4.2l0.7,0.2
		c1.9,2.3,3.3,4.5,5.4,6.5c0.3,1,1.5,1.9,1.5,3.1c1.9,0.7,1.9,2.4,2.6,4l0.6,0.7c0.5-0.6-0.5-0.8-0.3-1.4c0.6-2.4-0.8-5-0.2-7.3
		c-0.1-0.4-0.3-0.8-0.5-1.1c1.7-0.6,0.4-2.8,1.1-3.8c-0.3-1,0.8-1.9,0-2.8c0.8-1-0.6-2.2,0.3-3c1.6-1-0.7-2.9,0.9-4
		c-0.7-1.8,1.1-2.5,0.6-4.3c0.7-0.2,0.7-1,0.3-1.5c-0.2-1.4,1.1-2.2,1.1-3.6c0.5-1.4,1.5-2.5,1.7-4c0.8-0.4,0.6-1,0.7-1.7
		c0.9-1.4,1.9-2.3,1.9-3.8c1-0.2,1.2-1.3,1.4-2.2c1.1-1.6,1.5-3.5,3.6-4.5c2.4-3.7,5.6-6.9,8.6-9.9c1.8-2,3.7-4.3,6.5-5.3
		C134.6,96.9,135.1,96.7,135.5,96.9z"/>
	<path d="M243.7,126.3c0.6,0.7,0,1.8,0.2,2.6c0.1,2.6,0,6.1-0.2,8.7c-0.6-0.1-1.7,0.3-1.9-0.3v-7.9c-2.4-0.4-5.2,0-7.7-0.2l-0.2,0.2
		l-0.3,7.3c-0.4,0.6-1.2,0.2-1.8,0.3c-0.3-2.5-0.1-5.2-0.2-7.7c-2.9-0.2-5.9-0.4-8.8-0.2c-0.2,2.9-0.5,5.7-0.5,8.5
		c-0.6,0.2-1.6,0.3-1.9-0.5c0.6-3.5-0.6-7.3,0.2-10.8l0.4-0.4L243.7,126.3z"/>
	<path d="M36,132c-0.2,1,0.4,2.2-0.5,2.9c-7.6-0.2-15.3-0.8-23.1-1c-0.7-0.6-0.3-1.7-0.4-2.6c1.8-0.5,4.3-0.2,6.3-0.2
		C24,131.4,29.8,131.7,36,132z"/>
	<path d="M85.5,136c0.1,0.3-0.6,0.3-0.4,0H85.5z"/>
	<path d="M39.9,156.4c-5.1,4.4-11,6.9-16.5,11.2l0.2,0.3l8.7-0.3c2.2-0.6,5.1,0,7.5-0.5h3.5c0.5,1.4,1.8,3.8-0.8,4.2
		c-6.6,3.1-12.6,7-19.4,10.1c-0.9-0.5-0.6-1.5-1-2.4c5.5-3.4,11.2-6.1,16.9-9.1v-0.2c-1.9-0.1-3.9-0.2-6,0.2l-1.1-0.2
		c-4.3,0.1-8.8,0.8-12.8,0.5l-0.6-2.3c5.1-4.1,11-7.1,16.1-11.1h0.1c-0.8-0.4-2.4,0.1-3.6,0.2c-5.1,0.8-10.5,1.5-15.6,1.9
		c-0.4-0.5-0.4-1-0.6-1.6c0.6-1,2.1-0.7,3.1-1.1c7.1-0.7,13.9-1.8,20.8-2.6C39.5,154.4,39.6,155.5,39.9,156.4z"/>
	<path d="M218.3,155.8c-2-0.7-1.6,1.4-1.9,2.3c1.5,0.9,3.6,1.5,5.4,2.3c1.1,0.7,2.9,0.7,4,1.8l-0.6,2c-2,5.1-8,1.4-11.9,2.1
		c-0.2,0.9-1.2,2-0.2,2.7c2.9,0.2,5.7,1.1,8.8,1c1.3,0.2,2.3-1,3.1-1.4l0.6,2.7c0.8,1.6,2.3,2.8,4.1,3.2c2.2,0.7,4.2-0.2,5.8-1.8
		c2.1-2.6,2.8-6.1,3.6-9.1C232.1,161,225.1,158.4,218.3,155.8z M232.8,171.3c-2.1,0.6-3.8-0.3-5.1-1.6c-1.6-1.9-0.6-4.7,0.3-6.7
		c2.6,1,5.1,1.6,7.7,2.8C235.6,167.8,234.7,170,232.8,171.3z"/>
	<path class="st3" d="M183.7,166.3c3.1,0.1,6.2,0.8,8.9,2c1.7,0.2,2.8,2.3,4.9,1.9c1.9,1,4,1.4,5.7,2.9c2.8,1.4,5.5,3,7.9,5.2
		c1-0.1,1.4,1.1,2.3,1.2c2.4,2.2,4.9,3.8,7,6.1c2.2,1.4,3.6,3.6,4.7,6c-0.6,0.5-0.7-0.3-1.2-0.4c-2.4-1.2-4.7-2.6-6.7-4.5
		c-1.4-0.5-2.3-1.8-3.9-1.8c-2.2-1-3.6-2.6-6.1-3.1c-2.3-1.9-4.9-2.6-8-2.7c-0.3-0.5-0.4-1.1-1.1-1.1c-0.1,0.4-0.6,0.5-0.9,0.3
		c-0.4-1-2.2,0-2.1-1.3c-0.2-0.2-0.5-0.1-0.6-0.2c-0.6,0.4,0.1,0.8,0,1.3c-0.7,0.1-0.8-0.8-1.3-1c-2.1,0.3-4.2-0.6-6.5-0.4
		c-3.2,0-6.4-0.4-9.6-0.1c-1.4-0.7-2.8,0.3-4.2,0.6c-3.2-0.2-6.2,0.6-8.9,1.9c-1.6-0.4-2.6,1-4,0.7c-1.2,0.6-2.5,0.9-3.6,1.6
		c-1.2-0.2-2,0.7-3.2,0.8c-0.2,0.6-1,0.2-1.4,0.4c-2.4,1.6-5.3,2.2-7.6,4.1c-1.5,1-3.6,1.6-4.6,3.4c-3.7,1.2-5.6,5.2-8.4,7.5
		c-1,1.6-2.4,2.5-3.6,4.1c-1.2,0.8-2.2,2.5-3.6,2.8c-1.2,1.9-3.7,1.2-5.3,2.6c-2.9,0-4.9,1.7-7.6,2.2c-1.5,0.6-3.7,0.6-4.9-0.2
		c-1.4-1.1-3.3-1.6-4.4-3.4c0.2-1.4-0.5-2.5,0.6-3.4c-0.2-2.4,2.5-2.7,3.5-4.4c0.9-1.6,1.9-3.3,3.3-4.6c-0.1-1,1.1-1,1.5-1.5
		c1.1-1.7,2.1-3.4,3.8-4.2c0.4-1.6,2.3-1.5,2.8-2.9c1.6-0.6,2.4-2.4,4-3c0.6-1.4,2.4-1.1,2.9-2.3c1.2-0.5,2.5-1,3-2.3
		c0.6-0.6,1.9-0.2,2.3-1.1c1,0,1.3-1.1,2.2-1.4c2.4-0.6,3.9-2.6,6.5-3c1.1-0.6,2.3-0.5,3.2-1.3c1,0.2,1.6-0.5,2.2-1
		c2.3,0.2,3.4-1.7,5.6-1.5c1.6-1.2,3.6,0.4,4.9-1.3c2,0.1,4-1,6.1-0.7c1.7-0.1,3.6-1.1,5.1-0.2c2.2-0.9,4.3-0.3,6.7-0.5
		c0.6,0.4,1.5,1,2.2,0.3c0.2-0.3,0.7-0.4,1.1-0.5C177.9,165.4,181,165.1,183.7,166.3z"/>
	<path d="M51.9,193.9c1.2,1.1,1.3,2.7,1,4.3c-0.8,0.8-1.5,1.8-2.6,1.9c-1.5,0-3-0.3-3.7-1.5c-0.3-0.9-0.9-1.9-0.5-3
		c0.5-1.1,1.6-2.5,3.1-2.5C50.1,193.2,51,193.3,51.9,193.9z"/>
	<path d="M77.5,206.2c0.6,1.1-1.1,1.4-1.2,2.4l-11.1,15.1l0.6,1c1.9,1.5,4.2,2.5,5.8,4.2c-0.4,0.5-0.5,1.2-1.1,1.4
		c-3.2-1.6-6.1-4-8.9-6.5c2.6-3.8,5.3-7.5,8-10.9c1.6-3,4-5.1,5.9-8C76.3,205,76.7,205.9,77.5,206.2z"/>
	<path d="M191.6,217.3c-2.3-4.2-4.6-9.4-9.8-10.5c-4.9-0.5-8.8,2.3-12.2,4.9c1,2.2,2.3,3.8,3.2,5.7c3.4,4.6,6.2,9.3,9.4,14l0.5,0.2
		c2.8-1.9,5.7-3.4,7.9-6.1C192.5,223.2,192.4,220.1,191.6,217.3z M188.9,223c-0.9,2.5-2.7,3.7-4.9,5l-0.4-0.1l-10.3-15.8
		c1.2-1.4,3-2.4,4.9-2.8c5.6-0.3,8,5.2,10.1,8.7C188.9,219.5,189.5,221.2,188.9,223z"/>
	<path d="M152.6,243.2c-0.8,0.8-2.3,0.5-3.3,0.6c-3.6-4.8-6.8-10.2-10.1-15l-1.8-2.7c-0.2,3.1,0.6,6.5,0.7,9.5c0.3,2.8,1,6.2,1,9.2
		c-0.7,0.5-1.3,0.3-2.1,0.5c-0.7-0.3-0.2-1.1-0.6-1.5c-0.8-6.8-1.5-13.2-2.4-20.1v-1.8c1-0.2,2.2-0.6,3.4-0.3
		c3.9,5.7,7.8,11.8,11.7,17.7c0.2-3.9-1.2-8.2-1.1-12.1c-0.5-1.1-0.2-2.5-0.6-3.7c0.2-1.1-1.5-3.8,1.1-3.6l1.2,0.2L152.6,243.2z"/>
	<path d="M109.4,220.2c0.1-1.9-2.2-1.2-3.3-1.8c-3.5,4.7-6,9.3-9.4,13.8c-1.1,2.2-3.2,4.5-4.1,6.7c0.3,0.7,1.3,0.6,1.9,0.9
		c1.7-1.8,2.8-4,4.2-6.1l0.6-0.2c2.7,0.8,5.7,1,8,2.4c0,2.6,0.6,4.8,0.6,7.4c0.9,0.3,1.9,0.8,2.8,0.6
		C110.4,235.6,109.7,228.4,109.4,220.2z M100.6,231.3c1.9-3.2,3.8-6,5.9-9.1c0.3,3.4,0.6,7.2,0.6,10.9
		C104.7,232.9,102.6,232.2,100.6,231.3z"/>
</g>
</svg>
