<svg version="1.2" baseProfile="tiny" id="Ebene_1" xmlns="http://www.w3.org/2000/svg" xmlns:xlink="http://www.w3.org/1999/xlink"
	 x="0px" y="0px" width="100%" height="100%" viewBox="0 0 727.322 314.588" xml:space="preserve">
<g>
	<g>
		<circle fill="#FFFFFF" stroke="#000000" stroke-miterlimit="10" cx="157.031" cy="156.898" r="155.906"/>
		<path d="M153.717,15.729c0.692,0.78,0.989,2.341,0.692,3.511c-3.369-0.779-8.124-2.536-10.997,0.489
			c-1.09,0.975-0.892,2.925-0.595,3.998c3.567,4.974,11.194,4.779,14.167,10.046c1.388,2.535,0.694,6.144-0.792,8.192
			c-2.774,3.414-7.529,3.707-11.988,3.707c-1.387-0.585-3.468,0-3.566-1.853l0.098-2.049c3.369,0.585,8.322,2.438,11.494-0.293
			c0.791-0.78,1.286-1.853,1.584-3.023c-0.594-9.071-14.861-5.267-14.663-15.313c0-1.073,0-2.147,0.396-3.024
			c0.198,0.097,0.396-0.098,0.297-0.389v-0.39c0.595,0.097,0.297-0.781,0.793-0.878C143.808,15.242,149.159,15.242,153.717,15.729z"
			/>
		<path d="M102.296,28.116c3.369,7.899,6.143,16.19,9.413,23.895c2.972-1.073,6.241-2.048,9.511-3.121
			c0.495,0.585,0.792,1.463,0.792,2.341c-4.161,1.659-8.322,3.512-12.78,4.584c-3.666-8.485-6.639-17.848-10.205-26.138
			C99.126,28.214,101.107,27.823,102.296,28.116z"/>
		<path d="M192.652,33.968c0.594-0.293,1.091-0.683,1.783-0.78c2.972-1.464,4.26-4.779,3.865-8.193
			c-1.486-4.877-7.134-5.559-11.494-6.534c-1.089,0.488-2.774-1.659-2.971,0.585c-2.28,8.778-3.965,17.945-6.143,27.016
			c4.755,0.877,9.511,3.706,14.663,1.658c2.377-1.073,3.666-3.707,3.963-6.438C196.814,38.259,194.93,35.431,192.652,33.968z
			 M187.301,21.483c2.379,0.585,5.253,0.488,6.639,2.829c1.089,1.95,0.1,4.291-0.792,5.852c-0.991,0.975-2.278,1.56-3.765,1.658
			l-4.063-0.976C185.717,27.921,186.708,24.604,187.301,21.483z M192.157,40.795c-0.098,1.365-0.595,2.633-1.388,3.511
			c-2.475,1.95-5.844,0.781-8.52,0.195c0.297-3.609,1.486-7.12,2.379-10.728c2.774,0.195,5.648,1.268,7.232,3.315
			C192.157,38.162,192.75,39.722,192.157,40.795z"/>
		<path d="M233.57,38.455c-1.189-0.488-1.983-1.561-3.468-1.561c-7.828,7.022-15.258,12.777-22.689,19.604
			c0.892,0.683,1.486,1.659,2.874,1.366c2.379-1.659,4.655-3.999,6.837-5.755c3.267,1.658,6.34,3.706,9.114,5.657
			c-0.692,2.828-1.584,5.559-2.08,8.387c0.1,0.878,1.089,1.268,1.683,1.561c0.397,0.487,1.488,0.585,1.686-0.098l4.952-22.237
			C232.876,43.136,233.966,40.795,233.57,38.455z M226.832,53.182v0.975l-1.089-0.098l-6.043-3.901
			c2.674-2.926,6.637-5.852,9.809-8.681C229.31,45.574,227.724,49.28,226.832,53.182z"/>
		<path d="M74.061,44.891v0.78c-2.477,2.243-5.648,3.706-7.53,6.046l0.198,0.976c1.783,2.438,3.665,4.486,5.647,6.827
			c2.675-1.463,4.755-3.803,7.431-5.364c1.089-0.195,1.387,0.878,1.982,1.463c-2.081,2.537-5.053,3.707-7.431,6.145l0.495,1.267
			c2.278,2.536,3.765,5.072,6.142,7.412l8.521-6.046c0.792,0.098,1.189,0.975,1.584,1.56l-0.594,0.976
			c-3.567,2.438-7.035,5.462-10.7,7.705c-1.685-0.195-1.486-2.438-2.675-2.828c-4.755-6.438-10.502-12.874-14.96-19.116v-0.976
			c3.269-2.536,6.836-4.974,10.105-7.803C73.169,43.721,73.564,44.403,74.061,44.891z"/>
		<path fill="#FFFFFF" d="M229.31,56.108c-0.297,0.194-0.694,0.389-1.091,0.389C228.219,56.204,228.813,56.108,229.31,56.108z"/>
		<path d="M269.731,69.469c1.685,2.828,1.388,6.924-0.594,9.46c-0.694,0.487-1.091,1.658-2.18,1.072
			c-0.792-1.17-1.883-1.853-1.785-3.315c1.39-1.464,3.074-3.121,2.379-5.657c-0.989-2.243-2.872-3.901-5.548-3.998
			c-5.945,0.878-10.897,4.584-14.565,9.558c-1.288,1.755-1.881,4.291-1.386,6.534c1.089,3.219,3.865,5.169,6.935,6.144
			c-0.1,0.976-1.189,1.464-1.982,1.854c-4.757-0.976-7.729-5.559-8.52-10.339c0.197-7.899,6.735-13.069,13.275-15.8
			C260.618,62.935,267.255,64.3,269.731,69.469z"/>
		<path fill="#009453" d="M166.794,69.469c3.369,0.877,7.333,0,9.809,2.536c1.781-0.586,2.477,1.17,3.963,1.56
			c0.197,0.586,0.495,1.365,1.187,1.56c1.189,0.098,0.991,2.147,2.379,2.147c-1.089,1.658,1.685,2.243,0.594,3.901
			c-0.098,0.878,0,1.95,0.792,2.536l1.288,0.488c5.054-0.683,10.503-0.683,15.257,0.488c0.794,0.877,1.785,1.268,2.974,1.072
			c1.288,0.683,1.982,1.951,3.666,1.755c0.991,0.586,1.386,1.853,2.674,1.951c1.289,2.731,5.052,3.998,5.152,7.315
			c-0.495,0.195-0.991,1.267-0.297,1.853c1.388,0.195,0.991,1.755,0.892,2.829c-2.874,1.171,0.891,2.926-0.993,4.681
			c-0.493,2.536-0.395,5.949-2.18,8.289c-0.991,3.024-3.466,4.78-5.349,7.315c-1.288,0.683-2.575,1.268-4.16,0.878
			c-1.091-1.658-3.865-1.267-4.163-3.608c0.2-1.464-1.089-2.536-0.493-3.902c1.881-1.073,3.664-3.219,5.846-3.998
			c0.494-1.463,2.178-2.048,2.774-3.512c2.377-4.291,3.763-10.63,1.288-15.409c-2.082-2.731-5.054-4.487-8.323-5.17
			c-3.468,2.243-7.926-1.072-11.095,1.756c-1.685,0.585-3.766,0.195-5.054,1.755c-2.278,0.195-3.666,2.243-5.052,3.609
			c0.495,1.268-1.388,1.56-1.289,2.633c-1.584,1.56-3.071,3.218-3.963,4.974c-0.891,0.586-2.178,0.292-2.674,1.463
			c-1.584,0.195-2.28,0.586-3.865,0.098c-3.269-2.633-3.169-7.12-2.379-11.216c1.488-1.268,1.686,1.95,3.271,0.682
			c2.178-3.121,3.468-6.827,5.945-9.46c0.495-2.536,2.178-5.851-0.098-7.9c-2.972-3.023-7.729-1.56-11.692-1.658
			c-2.178,0.195-3.863,1.17-5.945,1.463c-2.575,1.464-4.458,3.512-6.637,4.974c0,1.073-1.388,1.268-1.586,2.146
			c-1.881,2.535-2.872,5.656-4.755,8.29c0.298,2.829-1.584,5.462-0.098,7.9c-0.099,1.951,0.891,3.511,1.882,5.072
			c0.595,1.658-2.081,1.755-0.891,2.926c-0.793,1.268-1.486,3.608-3.27,3.706c-0.991-0.976-2.378-0.976-3.566-1.755
			c-0.891-2.146-3.369-2.731-3.666-5.169c-2.278-0.781,1.585-4.974-2.378-3.902c-3.072,0.585-5.548,2.146-8.322,3.22
			c-1.089,1.852-3.369,1.365-4.359,3.218c-3.963,2.341-5.449,6.339-7.133,9.948c-1.883,2.243-0.397,5.462-0.893,7.997
			c0.397,1.756,2.081,2.731,2.972,4.292c2.477,0.584,4.755,2.048,7.53,1.658c0.891,0.878,1.783-0.098,2.873,0.488
			c2.378-0.195,4.162-0.878,6.341-1.658c0.792-0.586,1.486-1.171,2.378-1.268l4.062-2.633c0.892,0.293,0.396,1.268,0.396,1.951
			c-0.495,1.072-1.09,2.145-0.693,3.315c-1.487,1.365,0.297,3.608-1.784,4.584c-0.297,1.659-2.179,2.048-2.774,3.414
			c-2.775,1.658-5.946,2.243-9.114,2.925c-1.883,0-4.261,0.683-5.747-0.584c-2.972-1.171-6.44-1.366-8.818-3.414
			c-2.378-1.17-4.558-3.707-5.945-5.949c0.496-2.633-1.387-4.974-0.198-7.121c-0.991-1.658,1.388-2.437,0.694-4.194
			c2.477-1.072,0.397-3.803,2.775-5.071c0-2.244,2.08-3.707,2.972-5.657c1.982-2.731,3.765-5.95,6.935-7.705
			c3.071-2.926,7.332-3.707,10.998-5.56c2.576-0.878,6.044,0.488,7.628-2.146c-0.098-1.853,0.991-3.316,0.793-5.267
			c1.486-2.438,2.08-5.949,4.954-7.803c1.387-2.633,5.052-2.925,6.242-5.559c5.249-3.024,11.59-5.657,18.129-5.169L166.794,69.469z"
			/>
		<path d="M42.951,76.491c-0.099,2.048-2.378,3.608-3.071,5.657c4.062,3.12,8.125,6.046,12.583,8.875l9.114,6.047
			c0.099,1.073-0.693,1.951-1.387,2.828h-0.892l-21.5-14.434c-1.584,1.464-2.575,3.609-3.962,5.072
			c-0.892,0.098-1.387-0.488-1.882-1.072c2.873-4.486,5.944-9.169,9.214-13.557C41.96,75.711,42.455,76.296,42.951,76.491z"/>
		<path d="M288.159,103.8v0.389l-11.195,4.487c0.794,3.511,1.982,6.924,3.566,10.143c3.963-0.878,7.531-2.731,11.396-3.804
			c0.792,0.878,1.288,2.341,1.089,3.414c-8.62,3.413-17.338,6.632-26.155,9.558c-0.991-0.293-0.991-1.756-1.388-2.731l0.297-0.781
			c4.063-1.658,8.125-2.633,12.186-4.584c-0.594-2.243-1.881-4.486-2.575-6.729c-0.297-1.268-0.594-2.633-1.585-3.512
			c-4.262,1.268-8.125,3.414-12.683,3.902c-0.694-0.585-0.694-2.048-0.891-2.731c5.349-2.341,10.898-4.291,16.346-6.34
			c3.666-0.975,6.837-2.73,10.503-3.608L288.159,103.8z"/>
		<path d="M24.127,115.113l-1.585,5.95l0.693,0.584c8.521,1.95,16.942,3.999,25.264,6.438c-0.099,0.975-0.396,2.146-0.595,3.218
			c-4.656-0.194-8.718-2.438-13.276-3.12c-4.458-0.585-8.322-2.633-12.879-3.024c-0.992,1.95-0.892,4.486-2.081,6.242l-1.784-0.487
			c-0.098-3.219,1.585-5.657,1.784-8.876c0.792-0.293,0-1.365,0.693-1.755c0.396-1.853,0.595-4.194,1.685-5.754
			C22.839,114.529,23.632,114.529,24.127,115.113z"/>
		<path fill="#005FAA" d="M190.869,118.04c2.377,0.39,5.844-1.073,7.134,1.755c1.089-0.195,1.484,0.586,1.783,1.366
			c1.982,1.56,4.755,2.048,5.945,4.681c2.377,0.877,3.764,3.12,5.052,5.072c-0.297,1.072,0.893,1.267,1.188,2.146
			c0.794,3.706,1.686,8.972-1.188,12.094c-0.297,3.12-3.171,4.389-4.358,7.022c-1.685,0.293-1.488,2.926-3.271,2.243
			c-1.783,1.268-3.367,2.633-5.251,3.901c-1.982,0.39-3.468,2.049-5.746,1.756c-2.577,1.464-6.043,1.073-9.114,1.364
			c-1.091,0-2.379-0.681-3.072,0.39c-2.675-0.096-5.054-1.071-7.531-1.852c-1.484-0.78-2.772-2.146-3.468-3.707
			c-0.692-0.293-0.79-1.072-0.891-1.755c-1.189-0.781-1.288-2.146-2.18-3.219c0.594-1.853,1.089-4.486,3.071-5.267
			c0.991-1.853,3.173-2.926,3.568-5.169l0.495-1.95l0.595,0.097c1.881,3.121,0,7.998,3.963,9.948
			c0.098,0.293,0.197,0.878,0.692,0.779c5.449,0.683,11.394-0.389,15.654-3.023c5.152-1.267,7.529-5.95,10.403-9.558
			c0.297-1.755,1.388-3.706,0.495-5.462c0.297-1.755-0.495-3.12-1.685-3.803c-2.874-2.243-6.043,0.877-9.015-0.683
			c-0.792-0.488-1.881-0.293-2.278-1.17c-2.379-1.464-5.548,1.755-6.935-1.659c-0.594-1.951,0-3.608,1.189-5.168
			C187.401,118.43,189.283,116.187,190.869,118.04z"/>
		<path fill="#009453" d="M165.604,117.649c-0.792,0.293-1.783,0.195-1.783,1.366c1.089,0.682-0.495,0.975-0.199,1.853
			c-1.091,1.365-3.863,2.341-2.97,4.584c0.197,0.488-0.2,0.78-0.102,1.268c-0.594,0.097-1.089,0.293-1.484,0.683
			c0,0.585,0.792,1.072,0.297,1.755c-0.792,0-1.585,0.683-1.783,1.366c0,2.048,2.575-0.488,2.477,1.658
			c-0.397,0.586-1.881,0.586-1.386,1.755c-0.299,0.585,0.495,0.78,0.692,1.171c-0.991,1.95-2.674,3.901-2.874,6.242
			c-0.991,0.781-0.891,2.341-1.386,3.512c-1.586,1.463,0.098,4.194-1.386,5.559c-0.397,1.073,0.79,3.024-0.991,3.219
			c-0.596,0.878,0.197,1.95-0.2,2.927c-0.991,1.559-0.991,3.901-1.982,5.559c0,0.586,0.496,0.876,0.794,1.169
			c0,4.681-0.694,9.07-0.299,13.654c-1.286,1.073,0.495,2.83-0.594,4.194c0.495,2.049-0.991,4.194,0,6.34l0.098,8.291
			c0.299,1.362,0.1,2.728-0.594,3.803c0.892,2.828,0.892,6.045,0.495,8.973c-1.585,1.756-2.379,4.389-4.855,4.974
			c-0.595,0.39-0.496,0.876-0.099,1.267v0.295c-1.089,0.39-2.278-0.781-3.369,0.096c-1.387-0.486-3.072-0.39-4.26-1.366
			c-0.991-1.852-1.387-3.803-2.378-5.655h-0.397c0,0.781,0,1.951,0.596,2.537c-0.596,2.633-2.18,5.07-3.27,7.507
			c-0.792,0.88-1.783,1.366-1.783,2.632c-0.991,0.976-2.775,0.976-3.072,2.441c-1.882,0.291-3.171,2.047-5.35,1.366
			c-2.081-1.075-5.35-1.856-5.151-4.683c-1.585-0.976-2.576-3.023-3.963-3.803c0.198-2.828-1.883-4.683-2.081-7.216
			c-1.882-2.633-2.081-6.145-4.26-8.387c0.198-0.976-0.892-1.366-1.09-2.147c-0.595-2.437-2.675-3.708-2.477-6.535
			c-1.486-1.072-1.189-3.218-2.774-4.194c0.099-1.951-0.694-3.316-1.882-4.779c0.693-1.561-1.289-1.756-1.09-3.023
			c-0.694-0.488-0.595-1.463-0.991-2.146c-1.882-2.147-1.685-5.267-3.864-7.412c0.297-2.342-2.379-3.317-2.477-5.559
			c-1.784-2.047-2.973-4.488-4.459-6.535c-1.783-2.341-2.377-5.559-4.656-7.803c-0.099-1.267-0.991-1.95-1.783-3.024
			c-2.179-3.706-3.963-7.509-6.737-10.728c0.198-1.755-1.783-2.731-1.982-4.194c-1.981-2.438-3.566-5.657-5.15-8.193v-0.584h0.494
			c2.873,2.048,3.468,5.461,6.639,7.217c1.089,0.682,0.991,1.95,2.378,2.242c0.297,1.073,1.288,1.854,2.477,1.854
			c2.378,1.95,3.071,4.779,5.945,5.851c-0.099,1.561,3.17,1.171,1.584,2.731c-0.198,0.39,0.199,0.878,0.694,0.683
			c0.891-0.39,1.584,0.39,1.783,1.171c-0.792,1.267,1.585,0.779,0.595,2.242c0.198,0.586,0.793,0.586,1.189,0.196
			c0.693-0.878,0.991,0.682,1.783,0.682c0.693,0.585,0.396,1.56,0.396,2.243c0.198,1.268,2.378,0.878,2.18,2.438
			c0.396,0.098,0.396,0.878,0.99,0.586c0.199-0.098,0.1-0.39,0.1-0.586c1.684,0.098-0.396,2.049,1.288,2.438
			c-0.991,2.341,1.585,1.853,2.378,3.121h0.595v0.586c-0.595,0.195-1.189,0-1.387,0.781c-0.099,0.486,0.297,0.78,0.693,0.78
			c0.891,0,0.891-1.268,2.081-0.78c-0.099,1.266,1.982,1.266,1.189,2.437l1.288,2.147c-0.694-0.293-1.288,0.195-1.685,0.681
			c1.387,1.856,4.558-0.388,5.548,2.342c0.298,0.878,2.675,0.488,1.783,2.147c1.09,1.756,3.567,1.071,3.963,3.218
			c2.081,1.073,3.963,3.218,4.558,5.169l0.891,0.195c2.279,2.828,4.062,5.559,6.638,7.901c0.397,1.167,1.882,2.338,1.784,3.803
			c2.378,0.876,2.278,2.923,3.171,4.875l0.792,0.88c0.595-0.685-0.595-0.976-0.396-1.756c0.693-2.927-0.991-6.049-0.199-8.877
			c-0.099-0.486-0.396-0.974-0.595-1.364c2.081-0.683,0.495-3.415,1.288-4.584c-0.397-1.268,0.991-2.34,0-3.415
			c0.991-1.169-0.694-2.633,0.396-3.704c1.982-1.27-0.891-3.512,1.089-4.878c-0.892-2.242,1.388-3.023,0.793-5.265
			c0.891-0.294,0.891-1.171,0.396-1.856c-0.297-1.754,1.387-2.73,1.288-4.388c0.595-1.658,1.883-3.024,2.081-4.877
			c0.991-0.488,0.792-1.268,0.892-2.048c1.089-1.658,2.278-2.829,2.378-4.681c1.188-0.293,1.486-1.561,1.684-2.633
			c1.387-1.951,1.783-4.291,4.359-5.559c2.873-4.486,6.836-8.485,10.502-12.094c2.18-2.438,4.559-5.266,7.926-6.437
			C164.515,117.649,165.109,117.454,165.604,117.649z"/>
		<path d="M297.77,153.541c0.792,0.878,0,2.243,0.199,3.22c0.098,3.218,0,7.509-0.299,10.629c-0.792-0.096-2.08,0.39-2.277-0.39
			v-9.654c-2.974-0.49-6.342,0-9.412-0.295l-0.297,0.295l-0.397,8.873c-0.496,0.685-1.486,0.294-2.18,0.39
			c-0.397-3.023-0.1-6.34-0.198-9.459c-3.566-0.294-7.232-0.49-10.798-0.294c-0.198,3.512-0.595,6.925-0.595,10.438
			c-0.792,0.195-1.982,0.389-2.377-0.586c0.792-4.293-0.694-8.972,0.297-13.168l0.495-0.488L297.77,153.541z"/>
		<path d="M44.041,160.564c-0.198,1.171,0.495,2.73-0.595,3.511c-9.313-0.195-18.724-0.976-28.236-1.171
			c-0.891-0.683-0.397-2.049-0.495-3.12c2.179-0.585,5.251-0.293,7.728-0.195C29.378,159.783,36.413,160.173,44.041,160.564z"/>
		<path d="M104.476,165.438c0.099,0.39-0.693,0.39-0.495,0H104.476z"/>
		<path d="M48.796,190.408c-6.241,5.364-13.474,8.483-20.112,13.652l0.298,0.39l10.601-0.39c2.675-0.681,6.241,0,9.214-0.585h4.261
			c0.594,1.66,2.179,4.683-0.992,5.074c-8.024,3.803-15.455,8.582-23.678,12.386c-1.09-0.586-0.694-1.852-1.189-2.927
			c6.737-4.094,13.672-7.411,20.707-11.119v-0.291c-2.378-0.099-4.755-0.195-7.332,0.195l-1.288-0.294
			c-5.251,0.099-10.699,0.976-15.653,0.585l-0.694-2.828c6.241-4.974,13.475-8.678,19.617-13.556h0.099
			c-0.991-0.486-2.972,0.099-4.459,0.295c-6.241,0.972-12.781,1.852-19.022,2.338c-0.495-0.585-0.495-1.267-0.793-1.948
			c0.694-1.27,2.576-0.88,3.766-1.366c8.619-0.88,16.941-2.147,25.461-3.122C48.202,187.967,48.4,189.237,48.796,190.408z"/>
		<path d="M266.759,189.628c-2.477-0.88-1.982,1.756-2.379,2.828c1.885,1.071,4.36,1.852,6.54,2.828
			c1.386,0.88,3.568,0.88,4.855,2.146l-0.696,2.437c-2.475,6.241-9.808,1.756-14.563,2.537c-0.297,1.071-1.486,2.437-0.297,3.317
			c3.568,0.291,6.935,1.362,10.7,1.266c1.584,0.195,2.774-1.266,3.765-1.756l0.694,3.317c0.991,1.951,2.774,3.413,5.052,3.899
			c2.676,0.88,5.152-0.195,7.036-2.143c2.575-3.222,3.368-7.415,4.458-11.119C283.602,195.968,274.982,192.846,266.759,189.628z
			 M284.493,208.549c-2.575,0.78-4.655-0.39-6.242-1.951c-1.982-2.342-0.792-5.755,0.397-8.192c3.171,1.171,6.241,1.951,9.412,3.413
			C287.862,204.256,286.773,206.987,284.493,208.549z"/>
		<path fill="#005FAA" d="M224.455,202.404c3.764,0.096,7.529,0.976,10.898,2.437c2.082,0.294,3.468,2.828,5.943,2.342
			c2.28,1.266,4.855,1.756,6.935,3.512c3.468,1.657,6.739,3.704,9.711,6.337c1.188-0.096,1.683,1.366,2.774,1.465
			c2.972,2.633,6.043,4.584,8.52,7.411c2.675,1.756,4.458,4.389,5.746,7.316c-0.694,0.586-0.891-0.39-1.486-0.49
			c-2.874-1.462-5.746-3.118-8.223-5.46c-1.685-0.586-2.774-2.242-4.755-2.242c-2.674-1.27-4.458-3.222-7.431-3.803
			c-2.774-2.342-6.043-3.122-9.809-3.317c-0.395-0.586-0.494-1.366-1.286-1.366c-0.1,0.486-0.696,0.586-1.091,0.39
			c-0.496-1.171-2.675,0-2.575-1.561c-0.199-0.291-0.595-0.096-0.794-0.195c-0.692,0.49,0.1,0.976,0,1.561
			c-0.891,0.096-0.989-0.976-1.584-1.171c-2.575,0.39-5.152-0.681-7.926-0.486c-3.963,0-7.826-0.49-11.691-0.1
			c-1.683-0.876-3.468,0.39-5.15,0.685c-3.963-0.294-7.629,0.777-10.9,2.338c-1.982-0.486-3.169,1.171-4.854,0.88
			c-1.486,0.681-3.071,1.071-4.457,1.948c-1.488-0.195-2.479,0.88-3.866,0.976c-0.297,0.685-1.187,0.195-1.683,0.49
			c-2.874,1.951-6.44,2.732-9.312,4.974c-1.883,1.266-4.36,1.951-5.65,4.094c-4.557,1.465-6.835,6.34-10.203,9.172
			c-1.189,1.948-2.972,3.023-4.459,4.97c-1.486,0.976-2.675,3.026-4.458,3.417c-1.486,2.338-4.557,1.462-6.44,3.218
			c-3.567,0-6.044,2.047-9.313,2.633c-1.784,0.681-4.558,0.681-6.044-0.295c-1.685-1.362-4.062-1.948-5.35-4.194
			c0.198-1.657-0.595-3.023,0.694-4.194c-0.298-2.923,3.071-3.314,4.26-5.364c1.09-1.948,2.378-3.998,4.062-5.655
			c-0.099-1.171,1.387-1.266,1.881-1.852c1.388-2.051,2.577-4.098,4.657-5.169c0.495-1.951,2.774-1.856,3.369-3.512
			c1.981-0.681,2.872-2.927,4.854-3.608c0.794-1.657,2.874-1.366,3.566-2.828c1.486-0.586,3.072-1.27,3.666-2.828
			c0.792-0.781,2.379-0.195,2.774-1.366c1.191,0,1.586-1.366,2.677-1.661c2.97-0.781,4.753-3.118,7.924-3.704
			c1.386-0.685,2.774-0.586,3.963-1.561c1.189,0.195,1.982-0.585,2.675-1.171c2.774,0.291,4.16-2.047,6.835-1.852
			c1.982-1.465,4.458,0.486,5.945-1.561c2.477,0.096,4.855-1.267,7.431-0.876c2.08-0.1,4.36-1.366,6.241-0.295
			c2.675-1.071,5.251-0.39,8.225-0.585c0.692,0.49,1.783,1.171,2.674,0.39c0.297-0.39,0.892-0.486,1.386-0.586
			C217.321,201.329,221.186,201.038,224.455,202.404z"/>
		<path d="M63.36,236.147c1.486,1.366,1.585,3.317,1.189,5.269c-0.991,0.976-1.783,2.147-3.171,2.342
			c-1.882,0-3.665-0.39-4.557-1.856c-0.397-1.071-1.09-2.338-0.595-3.704c0.595-1.366,1.982-3.023,3.764-3.023
			C61.181,235.271,62.369,235.466,63.36,236.147z"/>
		<path d="M94.668,251.265c0.693,1.366-1.289,1.661-1.487,2.927l-13.573,18.435l0.694,1.171c2.278,1.852,5.151,3.023,7.034,5.169
			c-0.496,0.582-0.594,1.462-1.387,1.657c-3.963-1.951-7.431-4.878-10.898-7.901c3.171-4.68,6.44-9.168,9.808-13.266
			c1.982-3.704,4.855-6.241,7.233-9.749C93.281,249.803,93.677,250.875,94.668,251.265z"/>
		<path d="M234.066,264.821c-2.774-5.165-5.648-11.506-11.989-12.872c-6.043-0.585-10.7,2.828-14.86,6.045
			c1.189,2.732,2.772,4.584,3.963,7.021c4.16,5.659,7.529,11.414,11.492,17.069l0.594,0.195c3.369-2.341,6.935-4.194,9.709-7.411
			C235.255,272.041,235.055,268.139,234.066,264.821z M230.795,271.747c-1.089,3.023-3.267,4.488-6.043,6.049l-0.494-0.099
			l-12.583-19.311c1.486-1.756,3.664-2.927,5.945-3.413c6.835-0.39,9.807,6.34,12.383,10.629
			C230.795,267.458,231.491,269.505,230.795,271.747z"/>
		<path d="M186.509,296.422c-0.991,0.976-2.774,0.585-4.061,0.781c-4.358-5.851-8.321-12.485-12.284-18.335l-2.182-3.317
			c-0.197,3.807,0.696,8.001,0.893,11.609c0.397,3.413,1.189,7.607,1.189,11.215c-0.891,0.585-1.586,0.39-2.575,0.585
			c-0.892-0.39-0.198-1.366-0.694-1.852c-0.991-8.292-1.883-16.093-2.972-24.58v-2.147c1.187-0.291,2.674-0.78,4.16-0.39
			c4.757,7.025,9.512,14.436,14.268,21.653c0.199-4.779-1.486-10.044-1.388-14.823c-0.594-1.366-0.295-3.023-0.692-4.488
			c0.297-1.366-1.785-4.68,1.288-4.389l1.486,0.294L186.509,296.422z"/>
		<path d="M133.703,268.334c0.098-2.342-2.675-1.462-4.062-2.147c-4.261,5.755-7.331,11.314-11.493,16.874
			c-1.387,2.633-3.864,5.464-5.052,8.192c0.396,0.88,1.585,0.685,2.378,1.075c2.081-2.147,3.368-4.878,5.151-7.415l0.694-0.291
			c3.269,0.976,6.935,1.267,9.808,2.927c0,3.218,0.694,5.85,0.793,9.068c1.089,0.39,2.377,0.976,3.368,0.685
			C134.892,287.159,134,278.381,133.703,268.334z M122.903,281.89c2.379-3.899,4.657-7.312,7.233-11.119
			c0.396,4.098,0.693,8.777,0.693,13.365C127.956,283.842,125.38,282.965,122.903,281.89z"/>
	</g>
</g>
<g>
	<path fill="#FFFFFF" d="M351.245,94.355l4.62,31.223c0.561,3.781,0.91,8.191,1.12,13.372c0.351-3.78,0.91-7.771,1.54-11.901
		l5.181-32.693h4.271l5.251,33.043c0.56,3.36,0.91,7.141,1.19,11.411c0.77-6.86,1.12-10.781,1.26-11.761l4.551-32.693h4.48
		l-8.262,49.915h-3.99l-5.391-33.043c-0.63-3.851-1.189-7.701-1.26-11.481c-0.28,4.41-0.771,8.19-1.26,11.271l-5.601,33.254h-4.131
		l-8.121-49.915h4.552V94.355z"/>
	<path fill="#FFFFFF" d="M394.364,100.515c0,1.61-1.4,3.081-3.15,3.081c-1.68,0-3.08-1.471-3.08-3.15c0-1.681,1.33-3.011,3.08-3.011
		C393.034,97.435,394.364,98.835,394.364,100.515z M393.314,110.737v33.533h-4.201v-33.533H393.314z"/>
	<path fill="#FFFFFF" d="M398.563,114.166v-3.43h3.5v-9.381h4.131v9.381h5.53v3.43h-5.53v30.104h-4.131v-30.104H398.563z"/>
	<path fill="#FFFFFF" d="M412.633,114.166v-3.43h3.5v-9.381h4.131v9.381h5.53v3.43h-5.53v30.104h-4.131v-30.104H412.633z"/>
	<path fill="#FFFFFF" d="M431.812,128.518v1.12c0,7.631,2.1,11.691,5.391,11.691c2.66,0,4.69-2.94,4.83-8.19h3.99
		c-0.35,7.561-3.92,11.761-8.891,11.761c-6.23,0-9.381-5.74-9.381-17.151c0-11.481,3.71-17.643,9.591-17.643
		c5.951,0,9.102,5.812,9.102,17.292v1.12L431.812,128.518L431.812,128.518z M437.483,113.887c-3.221,0-5.391,3.78-5.671,11.201
		h10.711C442.453,117.737,440.493,113.887,437.483,113.887z"/>
	<path fill="#FFFFFF" d="M456.172,91.275v52.995h-4.201V91.275H456.172z"/>
	<path fill="#FFFFFF" d="M468.842,141.19c3.08,0,5.25-2.171,5.25-5.251c0-3.01-2.24-4.761-5.601-7.631
		c-3.92-3.36-6.44-5.74-6.44-9.94c0-4.761,3.431-8.191,8.261-8.191c2.03,0,3.99,0.561,5.95,1.75v4.271
		c-1.75-1.68-3.71-2.52-5.53-2.52c-2.73,0-4.761,1.96-4.761,4.55c0,2.801,2.03,4.411,5.041,6.931c4.34,3.641,7.07,6.161,7.07,10.712
		c0,5.32-3.78,9.171-8.961,9.171c-2.38,0-4.76-0.841-6.65-2.45v-4.901C464.571,140.07,466.741,141.19,468.842,141.19z"/>
	<path fill="#FFFFFF" d="M486.831,91.275v22.472c1.189-2.24,3.22-3.43,5.811-3.43c6.021,0,8.19,5.67,8.19,17.222
		c0,11.69-2.45,17.361-8.261,17.361c-2.66,0-4.761-1.33-5.881-3.71v3.08h-3.99V91.275H486.831z M496.632,127.678
		c0-9.381-0.98-13.861-5.11-13.861c-3.921,0-4.971,4.551-4.971,13.861s1.05,13.791,4.971,13.791
		C495.651,141.469,496.632,137.059,496.632,127.678z"/>
	<path fill="#FFFFFF" d="M520.012,141.19c-1.12,2.38-3.291,3.71-5.951,3.71c-6.091,0-8.19-5.95-8.19-18.202
		c0-10.99,2.38-16.381,8.19-16.381c2.591,0,4.551,1.26,5.881,3.57v-3.15h4.061v33.533h-3.99L520.012,141.19L520.012,141.19z
		 M515.18,141.469c3.921,0,4.971-4.48,4.971-13.791s-1.05-13.861-4.971-13.861c-4.13,0-5.11,4.48-5.11,13.861
		C510.07,137.129,511.051,141.469,515.18,141.469z"/>
	<path fill="#FFFFFF" d="M545.351,116.407c-1.261-1.54-2.521-2.24-4.131-2.24c-4.41,0-6.161,4.621-6.161,14.142
		c0,8.261,2.03,12.462,6.021,12.462c1.75,0,3.149-0.841,4.2-2.521v4.9c-1.54,1.05-3.08,1.54-4.9,1.54
		c-5.671,0-9.521-5.811-9.521-16.592c0-11.831,3.501-17.781,10.361-17.781c1.54,0,3.01,0.489,4.131,1.26V116.407z"/>
	<path fill="#FFFFFF" d="M554.59,91.275v22.542c1.54-2.38,3.78-3.5,6.44-3.5c4.971,0,6.791,3.5,6.791,10.711v23.242h-4.131v-23.872
		c0-4.831-0.84-6.861-4.13-6.861c-3.221,0-4.971,2.87-4.971,8.401v22.332h-4.131V91.275H554.59z"/>
	<path fill="#FFFFFF" d="M577.688,128.518v1.12c0,7.631,2.101,11.691,5.391,11.691c2.66,0,4.69-2.94,4.83-8.19h3.99
		c-0.35,7.561-3.92,11.761-8.891,11.761c-6.23,0-9.381-5.74-9.381-17.151c0-11.481,3.71-17.643,9.591-17.643
		c5.951,0,9.102,5.812,9.102,17.292v1.12L577.688,128.518L577.688,128.518z M583.359,113.887c-3.221,0-5.391,3.78-5.671,11.201
		h10.711C588.329,117.737,586.369,113.887,583.359,113.887z"/>
	<path fill="#FFFFFF" d="M602.048,110.737v4.55c1.26-3.15,3.08-4.76,5.53-4.97v4.48c-4.551,0.279-5.53,3.08-5.53,9.45v20.022h-4.131
		v-33.533h4.131V110.737z"/>
	<path fill="#FFFFFF" d="M631.656,94.355v45.784h10.711v4.131h-15.262V94.355H631.656z"/>
	<path fill="#FFFFFF" d="M658.816,141.19c-1.12,2.38-3.291,3.71-5.951,3.71c-6.091,0-8.19-5.95-8.19-18.202
		c0-10.99,2.38-16.381,8.19-16.381c2.591,0,4.551,1.26,5.881,3.57v-3.15h4.061v33.533h-3.99L658.816,141.19L658.816,141.19z
		 M653.985,141.469c3.921,0,4.971-4.48,4.971-13.791s-1.05-13.861-4.971-13.861c-4.13,0-5.11,4.48-5.11,13.861
		C648.875,137.129,649.855,141.469,653.985,141.469z"/>
	<path fill="#FFFFFF" d="M674.915,110.737v3.08c1.54-2.38,3.78-3.5,6.44-3.5c4.971,0,6.791,3.5,6.791,10.711v23.242h-4.131v-23.872
		c0-4.831-0.84-6.861-4.13-6.861c-3.221,0-4.971,2.87-4.971,8.401v22.332h-4.131v-33.533H674.915z"/>
	<path fill="#FFFFFF" d="M708.375,141.19c-1.12,2.38-3.291,3.71-5.951,3.71c-6.091,0-8.19-5.95-8.19-18.202
		c0-10.99,2.38-16.381,8.19-16.381c2.591,0,4.621,1.189,5.811,3.43V91.275h4.131v52.995h-3.99L708.375,141.19L708.375,141.19z
		 M703.544,141.469c3.921,0,4.971-4.48,4.971-13.791s-1.05-13.861-4.971-13.861c-4.13,0-5.11,4.48-5.11,13.861
		C698.433,137.129,699.414,141.469,703.544,141.469z"/>
	<path fill="#FFFFFF" d="M726.294,141.749c0,1.681-1.4,3.15-3.15,3.15c-1.681,0-3.15-1.54-3.15-3.15c0-1.75,1.399-3.08,3.15-3.08
		C724.964,138.669,726.294,139.999,726.294,141.749z"/>
</g>
<g>
	<path fill="#FFFFFF" d="M361.331,211.239c4.62,0,7.98-3.641,7.98-9.03c0-2.311-0.63-4.201-1.89-5.812
		c-2.03-2.66-4.9-4.27-7.421-6.3c-4.761-3.851-7.141-7.562-7.141-12.741c0-7.562,5.04-13.021,11.621-13.021
		c2.66,0,5.25,0.91,7.7,2.729v5.881c-2.029-2.87-4.62-4.34-7.49-4.34c-4.271,0-7.281,3.29-7.281,8.33
		c0,5.601,3.011,7.911,7.841,11.481c5.321,3.921,8.611,6.931,8.611,13.512c0,8.121-5.251,13.581-12.111,13.581
		c-3.011,0-5.74-0.77-8.331-2.38v-5.951C355.87,209.908,358.53,211.239,361.331,211.239z"/>
	<path fill="#FFFFFF" d="M387.861,180.646c6.16,0,9.521,5.881,9.521,17.432s-3.29,17.432-9.521,17.432
		c-6.371,0-9.661-5.811-9.661-17.432S381.49,180.646,387.861,180.646z M382.471,198.077c0,9.381,1.47,13.932,5.32,13.932
		c3.641,0,5.32-4.551,5.32-13.861c0-9.312-1.68-13.932-5.32-13.932C383.94,184.216,382.471,188.697,382.471,198.077z"/>
	<path fill="#FFFFFF" d="M422.369,171.124c0,1.61-1.4,3.081-3.15,3.081c-1.68,0-3.08-1.471-3.08-3.15c0-1.681,1.33-3.011,3.08-3.011
		C421.039,168.044,422.369,169.445,422.369,171.124z M421.319,181.346v33.533h-4.2v-33.533H421.319z"/>
	<path fill="#FFFFFF" d="M433.989,211.799c3.08,0,5.25-2.171,5.25-5.251c0-3.01-2.24-4.761-5.601-7.631
		c-3.92-3.36-6.44-5.74-6.44-9.94c0-4.761,3.431-8.191,8.261-8.191c2.03,0,3.99,0.561,5.95,1.75v4.271
		c-1.75-1.68-3.71-2.52-5.53-2.52c-2.73,0-4.761,1.96-4.761,4.55c0,2.801,2.03,4.411,5.041,6.931
		c4.341,3.641,7.07,6.161,7.07,10.712c0,5.32-3.78,9.171-8.961,9.171c-2.38,0-4.76-0.841-6.65-2.45V208.3
		C429.719,210.679,431.888,211.799,433.989,211.799z"/>
	<path fill="#FFFFFF" d="M445.048,184.776v-3.43h3.5v-9.381h4.131v9.381h5.53v3.43h-5.53v30.104h-4.131v-30.104H445.048z"/>
	<path fill="#FFFFFF" d="M483.967,164.964c7.701,0,11.201,3.99,11.201,12.741c0,6.511-2.38,10.501-6.37,11.411
		c5.181,1.47,7.421,5.461,7.421,12.461c0,8.892-4.131,13.302-12.392,13.302h-7.28v-49.915L483.967,164.964L483.967,164.964z
		 M481.096,187.157h2.801c4.83,0,6.65-2.73,6.65-9.102c0-6.37-1.681-9.03-6.44-9.03h-3.011V187.157z M481.096,210.819h2.101
		c6.301,0,8.331-2.311,8.331-9.521c0-6.861-2.311-10.081-7.562-10.081h-2.87V210.819z"/>
	<path fill="#FFFFFF" d="M516.378,211.799c-1.12,2.38-3.291,3.71-5.951,3.71c-6.091,0-8.19-5.95-8.19-18.202
		c0-10.99,2.38-16.381,8.19-16.381c2.591,0,4.551,1.26,5.881,3.57v-3.15h4.061v33.533h-3.99L516.378,211.799L516.378,211.799z
		 M511.547,212.078c3.921,0,4.971-4.48,4.971-13.791s-1.05-13.861-4.971-13.861c-4.13,0-5.11,4.48-5.11,13.861
		C506.436,207.739,507.417,212.078,511.547,212.078z"/>
	<path fill="#FFFFFF" d="M524.916,181.346h4.34l4.061,19.321c0.7,3.36,1.33,6.651,1.82,10.081c1.33-6.23,2.03-9.94,2.311-11.131
		l4.27-18.271h4.131l-12.041,46.345h-4.061l3.5-12.392L524.916,181.346z"/>
	<path fill="#FFFFFF" d="M552.076,199.127v1.12c0,7.631,2.1,11.691,5.391,11.691c2.66,0,4.69-2.94,4.83-8.19h3.99
		c-0.35,7.561-3.92,11.761-8.891,11.761c-6.23,0-9.381-5.74-9.381-17.151c0-11.481,3.71-17.643,9.591-17.643
		c5.951,0,9.102,5.812,9.102,17.292v1.12L552.076,199.127L552.076,199.127z M557.747,184.496c-3.221,0-5.391,3.78-5.671,11.201
		h10.711C562.717,188.346,560.757,184.496,557.747,184.496z"/>
	<path fill="#FFFFFF" d="M576.435,181.346v4.55c1.26-3.15,3.08-4.76,5.53-4.97v4.48c-4.551,0.279-5.53,3.08-5.53,9.45v20.022h-4.131
		v-33.533h4.131V181.346z"/>
	<path fill="#FFFFFF" d="M590.995,181.346v3.08c1.54-2.38,3.78-3.5,6.44-3.5c4.971,0,6.791,3.5,6.791,10.711v23.242h-4.131v-23.872
		c0-4.831-0.84-6.861-4.13-6.861c-3.221,0-4.971,2.87-4.971,8.401v22.332h-4.131v-33.533H590.995z"/>
	<path fill="#FFFFFF" d="M617.734,212.359c0,1.681-1.4,3.15-3.15,3.15c-1.681,0-3.15-1.54-3.15-3.15c0-1.75,1.4-3.08,3.15-3.08
		C616.404,209.279,617.734,210.609,617.734,212.359z"/>
</g>
</svg>
