<svg version="1.1" id="Ebene_1" xmlns="http://www.w3.org/2000/svg" xmlns:xlink="http://www.w3.org/1999/xlink" x="0px" y="0px"
	 viewBox="0 0 355.9 355.8" style="enable-background:new 0 0 355.9 355.8;" xml:space="preserve">
<style type="text/css">
	.st0{fill:#FFFFFF;}
	.st1{fill:none;}
	.st2{fill:#CBBF5C;}
	.st3{fill:#7D3A49;}
	.st4{fill:#D24D51;}
	.st5{fill:#F0B372;}
	.st6{fill:#005141;}
	.st7{fill:#2F8E7E;}
	.st8{fill:#3C3C3B;}
	.st9{fill:#9D9D9C;}
	.st10{fill:#BDBCBC;}
	.st11{fill:#B2B2B2;}
	.st12{fill:#DADADA;}
</style>
<g>
	<circle class="st0" cx="177.5" cy="177.4" r="177.5"/>
	<path class="st1" d="M178,0C79.8,0,0.2,79.6,0.2,177.9c0,98.2,79.6,177.9,177.9,177.9c98.2,0,177.9-79.6,177.9-177.9
		C355.9,79.6,276.3,0,178,0z"/>
	<path class="st2" d="M299.6,107.7L332.1,89C317,62.8,295,40.1,267,23.9C238.9,7.7,208.3,0,178,0v37.5
		C230,37.5,275.4,65.7,299.6,107.7z"/>
	<path class="st3" d="M331.9,89l-32.3,18.7c12,20.7,18.8,44.6,18.8,70.2c0,25.6-6.9,49.6-18.9,70.3l32.4,18.7
		c15.1-26.2,23.8-56.5,23.8-88.9C355.7,145.5,347,115.2,331.9,89z"/>
	<path class="st4" d="M299.6,248.1C275.3,290,230,318.2,178,318.2v37.6c30.2,0,60.9-7.7,88.9-23.9c28.1-16.2,50-38.9,65.1-65.1
		L299.6,248.1z"/>
	<path class="st5" d="M56.4,248l-32.6,18.8c15.1,26.2,37.1,48.9,65.1,65.1c28.1,16.2,58.7,23.9,88.9,23.9v-37.5
		C126,318.1,80.7,289.9,56.4,248z"/>
	<path class="st6" d="M37.7,177.9c0-25.5,6.8-49.5,18.7-70.1L23.8,88.9C8.7,115.1,0,145.5,0,177.9c0,32.4,8.7,62.8,23.8,88.9
		L56.4,248C44.5,227.3,37.7,203.4,37.7,177.9z"/>
	<path class="st7" d="M177.9,37.5V0C147.6,0,117,7.7,88.9,23.9C60.9,40.1,38.9,62.8,23.8,89l32.6,18.8
		C80.6,65.8,125.9,37.6,177.9,37.5z"/>
	<g>
		<path class="st8" d="M178,94.1c-29.2,0-58.3,0-87.5,0c1.5,31.2,4.5,62.3,6.6,93.4c1.4,20.8,1.8,41.2,12.5,59.9
			c8.6,15,22.2,26.1,38.2,32.3c21.9,8.6,43.2,7.9,64.6-1.9c26.9-12.3,42.1-38.2,44.8-67c3.7-38.7,6.2-77.9,8.1-116.7
			C236.4,94.1,207.2,94.1,178,94.1L178,94.1z"/>
		<path class="st9" d="M180.1,149.6v132.4c11,0,20.5-2.5,31.5-7.6c25.9-11.8,40.4-36.7,43.1-64.4c1.9-20,3.5-40.2,4.8-60.4
			L180.1,149.6L180.1,149.6z"/>
		<path class="st0" d="M177,149.6v132.4c-11,0-20.5-2.5-31.5-7.6c-25.9-11.8-40.4-36.7-43.1-64.4c-1.9-20-3.5-40.2-4.8-60.4
			L177,149.6L177,149.6z"/>
		<path class="st0" d="M259.4,146.5c1.1-16.2,2-32.5,2.8-48.7c-28,0-56.1,0-84.1,0c-28,0-56.1,0-84.1,0c0.8,16.2,2,32.5,3.3,48.7
			H259.4z"/>
		<path class="st10" d="M261,119.6c0.4-7.3,0.8-14.6,1.1-21.8c-9.7,0-19.5,0-29.2,0l12.5,20.7L261,119.6z"/>
		<polygon class="st10" points="228.9,137.7 258.4,140 245.4,118.5 215.9,116.4 		"/>
		<polygon class="st10" points="205.6,146.5 234.5,146.5 228.8,137.4 198.7,135.1 		"/>
		<path class="st10" d="M215.4,115.6L205,97.8c-9,0-18,0-27,0c-0.9,0-1.7,0-2.6,0l9.9,16L215.4,115.6z"/>
		<polygon class="st10" points="198.5,135.1 185.6,114 156.5,111.8 169.7,133.2 		"/>
		<polygon class="st10" points="148.3,146.5 177.8,146.5 170.3,133.2 138.9,130.6 		"/>
		<polygon class="st10" points="109.2,128.5 138.4,130.8 126,109.5 96.2,107.3 		"/>
		<path class="st10" d="M156.9,111.8l-8.2-14c-10,0-20.1,0-30.1,0l7.1,11.7L156.9,111.8z"/>
		<path class="st10" d="M108.8,128.7l-13-1.1c0.5,6.3,0.9,12.6,1.4,18.9h23.6L108.8,128.7z"/>
		<path class="st9" d="M94.3,103.9c0.1,1,0.1,2,0.2,3.1l1.5,0.2L94.3,103.9z"/>
		<g>
			
				<rect x="177.5" y="28.7" transform="matrix(7.489933e-02 -0.9972 0.9972 7.489933e-02 51.7796 282.6777)" class="st8" width="1.5" height="169.6"/>
		</g>
		<g>
			
				<rect x="176.7" y="49" transform="matrix(7.489933e-02 -0.9972 0.9972 7.489933e-02 30.6634 300.6902)" class="st8" width="1.5" height="169.6"/>
		</g>
		<g>
			
				<rect x="190.4" y="92.9" transform="matrix(0.8537 -0.5208 0.5208 0.8537 -36.093 117.5681)" class="st8" width="1.5" height="60.2"/>
		</g>
		<g>
			
				<rect x="219.1" y="92.9" transform="matrix(0.8536 -0.5209 0.5209 0.8536 -31.8989 132.5092)" class="st8" width="1.5" height="60.2"/>
		</g>
		<g>
			
				<rect x="162.6" y="92.9" transform="matrix(0.8537 -0.5208 0.5208 0.8537 -40.1627 103.0806)" class="st8" width="1.5" height="60.2"/>
		</g>
		<g>
			
				<rect x="133.1" y="92.9" transform="matrix(0.8537 -0.5208 0.5208 0.8537 -44.4773 87.7209)" class="st8" width="1.5" height="60.2"/>
		</g>
		<polygon class="st8" points="260.7,142 232.1,95.2 230.8,95.9 260.7,144.9 		"/>
		<polygon class="st8" points="122,148.3 92.8,100.5 92.8,103.3 120.3,148.3 		"/>
		<g>
			<path class="st11" d="M137.3,157.4c-2.2,3.9-1.9,6.7-9.6,5.9c-7.8-0.7-5.2,8.3-4.6,10c0.6,1.7,5.2,11.5-3.3,10
				c-8.5-1.5-8.7,6.9-4.5,12.1s3.5,10-1.5,11.7c-5,1.7-5.1,8.2-1.3,11.1c3.8,3,13.3,10,8.7,16.1c-4.5,6.1-1.9,9.5,6.4,12.1
				c8.3,2.6,12.4,6.7,13,12.4c0.6,5.8,10.2,9.3,11.7,9.5c-1.5-4.3-2-9.6-4.1-11.3c-0.2-2.2,2.4-8.2,9.6-12.4s9.1-11.9,1.3-13
				c-7.8-1.1,1.7-8.9,3.4-10.6c1.8-1.7,12.7-13,0-15.4c-12.7-2.4-1.8-5.6,1.4-12.6c3.2-7,0-10.9-5.4-10.4s-4.8-3.3-0.7-8
				s1.7-11.5-4.5-10.2c-6.1,1.3-3.9-4.1-5.4-7S142.1,148.9,137.3,157.4z"/>
			<path class="st8" d="M153.4,269.2l-1.2-0.1c-1.7-0.2-11.7-3.8-12.3-10.1c-0.5-5.6-4.5-9.3-12.5-11.8c-5.3-1.7-8.1-3.5-8.9-6
				c-0.7-2,0-4.4,2.1-7.2c4-5.4-4.3-11.8-8.3-14.9l-0.3-0.2c-2.2-1.7-3.4-4.6-2.9-7.3c0.4-2.4,2-4.3,4.4-5.1
				c1.9-0.6,3.2-1.8,3.6-3.3c0.6-2-0.3-4.6-2.4-7.2c-2.7-3.3-3.6-7.6-2.3-10.4c1.2-2.4,3.8-3.5,7.5-2.9c1.9,0.3,3.2,0.1,3.8-0.8
				c1.2-1.8-0.4-6-1-7.6c-0.1-0.3-0.2-0.5-0.3-0.7c-0.3-1-1.9-6.2,0.2-9.1c0.9-1.3,2.4-1.9,4.3-1.9c0.3,0,0.6,0,0.9,0
				c0.8,0.1,1.6,0.1,2.2,0.1c3.9,0,4.6-1.3,5.7-3.7c0.3-0.6,0.6-1.2,1-1.9c1.8-3.3,3.9-4.9,6-4.9c2.6,0,4.8,2.6,6,5
				c0.5,1,0.6,2.2,0.7,3.4c0.2,2.5,0.5,3.4,2.3,3.4c0.4,0,0.9-0.1,1.5-0.2c3.1-0.6,5.6,0.6,6.8,3.1c1.2,2.6,0.5,5.9-1.6,8.3
				c-2.7,3.1-3.3,5.2-2.9,6c0.3,0.7,1.3,0.8,2.1,0.8c0.3,0,0.6,0,0.9-0.1c2.9-0.3,5.3,0.6,6.5,2.5c1.4,2.1,1.2,5.3-0.4,8.9
				c-1.1,2.5-3.2,4.5-4.8,6.2c-1.3,1.3-2.7,2.7-2.5,3.3c0.1,0.4,1,1.2,5.4,2.1c3.6,0.7,5.8,2.2,6.5,4.4c1.4,4.9-5.3,11.5-6.1,12.3
				c-0.2,0.1-0.4,0.3-0.6,0.6c-1.5,1.4-6.2,5.6-5.6,7.5c0.2,0.7,1.4,1.1,2.4,1.2c4.2,0.6,5.3,2.9,5.6,4.3c0.6,3.3-2.1,7.4-6.6,10.1
				c-6.5,3.9-9.2,9.2-9.3,11.4c1.4,1.4,2,4,2.8,7c0.4,1.5,0.8,3,1.2,4.4L153.4,269.2z M117.8,183.9c-2,0-3.4,0.7-4.1,2.2
				c-1.1,2.3-0.2,6,2.1,8.8c2.5,3,3.4,6.1,2.7,8.6c-0.6,2-2.1,3.5-4.5,4.3c-2.5,0.8-3.2,2.8-3.4,3.9c-0.4,2.2,0.5,4.5,2.3,5.9
				l0.3,0.2c4,3.1,13.5,10.4,8.6,17c-1.8,2.4-2.4,4.3-1.9,5.8c0.6,2,3.2,3.6,7.9,5.1c8.5,2.6,12.9,6.9,13.5,13.1
				c0.4,4.3,6.9,7.4,9.8,8.5c-0.3-1.1-0.6-2.1-0.9-3.2c-0.7-2.8-1.4-5.5-2.6-6.5l-0.2-0.2l0-0.3c-0.2-2.8,2.8-8.9,10-13.1
				c3.9-2.3,6.4-5.9,5.9-8.5c-0.3-1.7-1.8-2.7-4.3-3.1c-2-0.3-3.2-1-3.6-2.2c-0.8-2.5,2.4-5.8,6-9.1c0.2-0.2,0.5-0.4,0.6-0.6
				c2.4-2.3,6.7-7.4,5.7-10.8c-0.5-1.7-2.3-2.8-5.3-3.4c-4.2-0.8-6.1-1.7-6.5-3.1c-0.5-1.5,1-3,2.9-4.8c1.6-1.6,3.5-3.5,4.5-5.7
				c1.4-3.1,1.6-5.8,0.5-7.5c-0.9-1.4-2.8-2.1-5.1-1.9c-0.4,0-0.7,0.1-1,0.1c-2.2,0-3.1-0.9-3.5-1.7c-1-2.3,1.5-5.7,3.1-7.6
				c1.8-2,2.3-4.7,1.4-6.7c-0.9-1.9-2.8-2.7-5.1-2.2c-0.7,0.1-1.3,0.2-1.8,0.2c-3.3,0-3.6-2.7-3.8-4.8c-0.1-1-0.2-2.1-0.6-2.9
				c-1-1.9-2.8-4.1-4.7-4.1c-1.6,0-3.2,1.4-4.7,4.2c-0.4,0.6-0.7,1.3-0.9,1.8c-1.2,2.6-2.2,4.6-7.1,4.6c-0.7,0-1.5,0-2.4-0.1
				c-1.9-0.2-3.2,0.2-3.9,1.3c-1.7,2.4-0.1,7.2,0,7.8c0.1,0.2,0.1,0.4,0.2,0.6c0.8,2.1,2.5,6.5,0.8,8.9c-0.9,1.4-2.7,1.8-5.3,1.4
				C119,184,118.4,183.9,117.8,183.9z"/>
		</g>
		<g>
			<path class="st8" d="M127.1,239.4c2.2,0.3,4.3,0.8,6.4,1.5c2.1,0.8,4.1,1.9,5.5,3.7c1.5,1.7,2.3,4,2.5,6.2c0.2,2.3,0,4.5-0.4,6.7
				l-1.4-0.3c0.5-2.1,0.9-4.2,0.8-6.3c-0.1-2.1-0.7-4.2-2-5.9c-1.3-1.7-3.1-2.9-5.1-3.8C131.4,240.4,129.3,239.8,127.1,239.4z"/>
		</g>
		<g>
			<path class="st8" d="M147.9,255.2c-0.7-1-1.3-2-1.7-3.2c-0.4-1.1-0.6-2.4-0.4-3.6c0.2-1.2,0.8-2.3,1.5-3.2
				c0.7-0.9,1.6-1.7,2.5-2.4c-0.8,0.8-1.6,1.6-2.2,2.6c-0.6,1-1,2-1.1,3.1c-0.1,1.1,0.2,2.1,0.6,3.1c0.5,1,1.1,1.9,1.8,2.7
				L147.9,255.2z"/>
		</g>
		<g>
			<path class="st8" d="M141.5,260.2l-0.9-1.2c0.7-0.5,4.5-3.2,8.2-2.3l-0.3,1.4C146.1,257.6,143.2,258.9,141.5,260.2z"/>
		</g>
		<g>
			<path class="st8" d="M131.8,238.3c1.2,0.2,2.4,0.5,3.6,0.8c0.6,0.1,1.2,0.3,1.8,0.5c0.3,0.1,0.6,0.2,0.9,0.3
				c0.1,0.1,0.3,0.1,0.4,0.2c0.1,0,0.1,0.1,0.2,0.1c0.1,0.1,0.1,0.1,0.3,0.2l-0.4,0.2c-0.2-1.3-0.1-2.5-0.1-3.8
				c0-1.2-0.1-2.5-0.2-3.7c-0.3-2.4-1.1-4.8-2.4-6.9c-1.3-2.1-3.2-3.8-5.2-5.2c-2.1-1.4-4.3-2.5-6.7-3.4c2.4,0.7,4.8,1.6,6.9,2.9
				c2.2,1.3,4.1,3.1,5.5,5.2c0.7,1.1,1.3,2.2,1.7,3.4c0.4,1.2,0.7,2.5,0.8,3.7c0.1,1.3,0.2,2.5,0.2,3.8c0,1.3-0.1,2.5,0,3.7l0,0
				l-0.4,0.2c0,0-0.2-0.1-0.3-0.2c-0.1-0.1-0.3-0.1-0.4-0.2c-0.3-0.1-0.6-0.2-0.8-0.3c-0.6-0.2-1.1-0.4-1.7-0.6
				C134.2,239,133,238.7,131.8,238.3z"/>
		</g>
		<g>
			<path class="st8" d="M126,217c1.8,0.4,3.6,0.9,5.4,1.5c1.8,0.6,3.5,1.3,5.1,2.3l-0.4,0.2c0.1-1.6,0.3-3.1,0.5-4.6
				c0.2-1.5,0.4-3.1,0.3-4.6c0-1.5-0.4-3-1.1-4.3c-0.3-0.7-0.8-1.3-1.2-1.9c-0.5-0.6-1-1.1-1.5-1.7c-2.1-2.3-4.1-4.6-6.1-7
				c-1-1.2-2-2.4-2.9-3.6c-0.5-0.6-0.9-1.2-1.4-1.9c-0.2-0.3-0.4-0.6-0.7-1c-0.2-0.3-0.4-0.7-0.5-1c0.1,0.4,0.4,0.7,0.6,1l0.7,0.9
				c0.5,0.6,1,1.2,1.5,1.8l3,3.5c2.1,2.3,4.1,4.6,6.2,6.9c1.1,1.1,2.2,2.3,2.9,3.7c0.7,1.4,1.1,3,1.1,4.6c0,3.2-0.7,6.2-1,9.3l0,0.4
				l-0.3-0.2c-1.5-1-3.2-1.7-5-2.4C129.6,218,127.8,217.5,126,217z"/>
		</g>
		<g>
			<path class="st8" d="M127.1,192.8c1.3,1.5,2.6,2.9,3.9,4.3c1.4,1.4,2.7,2.8,4.4,3.7c0.4,0.2,0.8,0.4,1.3,0.4c0.4,0,0.8-0.1,1-0.5
				c0.5-0.7,0.6-1.7,0.7-2.6c0-1.9,0-3.9,0-5.8c0-1.9-0.1-3.9-0.3-5.8c-0.1-1-0.3-1.9-0.4-2.9c-0.1-0.9-0.6-1.7-1.1-2.5
				c-1.1-1.6-2.4-3-3.5-4.6c-0.5-0.8-1.1-1.7-1.4-2.6c-0.4-0.9-0.5-1.9-0.2-2.9c-0.2,1,0,1.9,0.4,2.8c0.4,0.9,0.9,1.7,1.5,2.4
				c1.2,1.6,2.5,2.9,3.7,4.5c0.3,0.4,0.6,0.8,0.8,1.3c0.2,0.4,0.4,1,0.5,1.5c0.2,1,0.3,1.9,0.5,2.9c0.3,1.9,0.4,3.9,0.4,5.9
				c0,2,0,3.9-0.1,5.9c-0.1,1-0.2,2-0.8,3c-0.3,0.5-1,0.7-1.5,0.7c-0.6,0-1-0.3-1.5-0.5c-1.7-1-3.1-2.5-4.4-3.9
				C129.5,195.9,128.3,194.4,127.1,192.8z"/>
		</g>
		<g>
			<path class="st8" d="M141.1,162.5c-0.6,2.6-1,5.3-1.2,7.9c-0.1,1.3-0.2,2.7-0.2,4c0,1.3,0,2.7,0.3,3.9l-0.7,0.1
				c-0.2-1.4-0.2-2.7-0.1-4.1c0.1-1.4,0.2-2.7,0.4-4C139.9,167.8,140.4,165.1,141.1,162.5z"/>
		</g>
		<g>
			<path class="st8" d="M142.6,165.1c0.1,2.8-0.2,5.6-0.3,8.4c0,0.7,0,1.4,0,2.1c0,0.7,0.1,1.4,0.4,1.9c0.2,0.2,0.4,0.4,0.7,0.4
				c0.3,0,0.6-0.1,0.9-0.2c0.6-0.2,1.2-0.6,1.8-1c-0.5,0.5-1,1-1.7,1.3c-0.3,0.2-0.7,0.3-1.1,0.4c-0.4,0-0.9-0.2-1.1-0.5
				c-0.5-0.7-0.6-1.4-0.7-2.1c-0.1-0.7-0.1-1.4,0-2.1C141.7,170.7,142.1,167.9,142.6,165.1z"/>
		</g>
		<g>
			<path class="st8" d="M149.2,175.6c0.2-0.3,0.4-0.5,0.6-0.8c0.2-0.2,0.5-0.4,0.7-0.7c0.5-0.4,0.8-1,1.2-1.5l0,0l-0.4,0.9
				c-0.2,0.3-0.4,0.6-0.6,0.8c-0.2,0.3-0.4,0.5-0.7,0.7C149.8,175.3,149.6,175.5,149.2,175.6L149.2,175.6z"/>
		</g>
		<g>
			<path class="st8" d="M146.1,178.5c-0.8,0.7-1.6,1.3-2.3,2.1c-0.7,0.7-1.1,1.7-1.3,2.6c-0.2,1-0.3,2-0.3,3l-0.1,3.1
				c-0.1,2.1-0.2,4.1-0.2,6.2c0,1,0,2.1,0.1,3.1c0,0.5,0.1,1,0.3,1.5c0.1,0.2,0.2,0.5,0.4,0.6c0.2,0.2,0.5,0.1,0.7,0
				c-0.2,0.1-0.5,0.2-0.8,0.1c-0.2-0.1-0.4-0.4-0.5-0.6c-0.2-0.5-0.4-1-0.5-1.5c-0.2-1-0.3-2.1-0.3-3.1c-0.1-2.1,0-4.2,0.1-6.2
				l0.2-3.1c0.1-1,0.1-2.1,0.4-3.1c0.3-1,0.8-2,1.6-2.8C144.4,179.6,145.3,179.1,146.1,178.5z"/>
		</g>
		<g>
			<path class="st8" d="M152.8,195.6c-1.3,1.4-2.8,2.8-4.2,4.1c-1.4,1.3-2.8,2.7-4,4.3c-1.2,1.5-2.1,3.2-2.5,5.1
				c-0.2,0.9-0.2,1.9-0.2,2.8l0,2.9c0,1.9,0,3.9,0.2,5.8c0,0.2,0.1,0.5,0.2,0.7c0.1,0.2,0.2,0.4,0.2,0.4c0.1,0,0.3,0,0.5-0.1
				c0.2-0.1,0.4-0.2,0.6-0.3c0.8-0.5,1.7-1,2.5-1.5c3.4-1.9,7-3.6,10.6-5c-1.8,0.8-3.5,1.7-5.2,2.7c-1.7,0.9-3.4,1.9-5.1,2.9
				l-2.5,1.6c-0.2,0.1-0.4,0.3-0.7,0.4c-0.2,0.1-0.6,0.2-1,0.1c-0.4-0.2-0.5-0.5-0.6-0.8c-0.1-0.3-0.1-0.5-0.2-0.8
				c-0.3-2-0.2-4-0.3-5.9l0-2.9c0-1,0-2,0.3-3c0.4-2,1.5-3.8,2.7-5.3C146.8,200.5,149.9,198.2,152.8,195.6z"/>
		</g>
		<g>
			<path class="st8" d="M151.7,220c-0.8,0.6-1.6,1.1-2.4,1.6c-0.8,0.5-1.6,1.1-2.3,1.7c-1.5,1.2-2.6,2.8-3.2,4.6
				c-0.6,1.8-0.7,3.7-0.6,5.6c0.1,1.9,0.5,3.8,1,5.7l0,0c0.2,0.5,0.4,1.1,0.6,1.6c0.2,0.5,0.5,1,0.9,1.2c0.4,0.3,0.9,0.2,1.4,0.1
				c0.5-0.1,1-0.4,1.5-0.6c1-0.5,1.9-1.2,2.8-1.8c0.9-0.7,1.8-1.4,2.7-2.1c-0.8,0.8-1.6,1.6-2.5,2.3c-0.9,0.7-1.8,1.4-2.8,2
				c-0.5,0.3-1,0.6-1.6,0.7c-0.6,0.2-1.3,0.3-1.9-0.1c-0.6-0.4-0.9-1-1.1-1.5c-0.2-0.5-0.4-1.1-0.7-1.6l0,0l0,0
				c-0.5-1.9-1-3.8-1.1-5.8c-0.1-2,0-4,0.7-5.9c0.7-1.9,2-3.5,3.5-4.7C148.3,221.8,150.1,221.1,151.7,220z"/>
		</g>
		<path class="st0" d="M146.3,156l0.8,1.2c0.3,0.4,0.4,0.8,0.6,1.3c0.2,0.9,0.3,1.8,0.4,2.8c0.1,0.9,0.2,1.8,0.7,2.6
			c0.4,0.8,1.3,1.3,2.1,1.6c-0.9-0.2-1.8-0.6-2.4-1.5c-0.5-0.8-0.7-1.8-0.8-2.7c-0.1-0.9-0.2-1.8-0.4-2.7
			C147.3,157.6,146.7,156.8,146.3,156z"/>
		<path class="st0" d="M158.5,172.5c-0.8,1.6-1.9,3-2.9,4.4c-0.5,0.7-0.9,1.5-1.3,2.2c-0.3,0.8-0.5,1.7-0.1,2.5
			c-0.2-0.4-0.4-0.8-0.4-1.3c0-0.5,0.1-0.9,0.2-1.3c0.3-0.9,0.8-1.6,1.2-2.4C156.3,175.2,157.4,173.9,158.5,172.5z"/>
		<path class="st0" d="M164.5,188.6c-0.1,1.4-0.5,2.7-1,4c-0.6,1.3-1.3,2.4-2.2,3.5c-0.9,1.1-1.9,2-2.9,3c-1,1-1.9,1.9-2.4,3.2
			c0.4-1.3,1.3-2.4,2.2-3.4c0.9-1,1.9-1.9,2.8-3c0.9-1,1.6-2.2,2.2-3.4C163.8,191.2,164.2,189.9,164.5,188.6z"/>
		<path class="st0" d="M167.7,212.3c-0.4,1.7-1.2,3.3-2.3,4.7c-1,1.4-2.3,2.6-3.6,3.8c-1.3,1.2-2.6,2.3-3.7,3.6
			c-1.1,1.3-2.1,2.8-2.6,4.5c0.2-0.9,0.5-1.7,0.9-2.5c0.4-0.8,0.9-1.5,1.5-2.2c1.1-1.4,2.4-2.5,3.7-3.7c1.3-1.2,2.5-2.4,3.6-3.8
			C166.2,215.4,167.1,213.9,167.7,212.3z"/>
		<path class="st0" d="M162.9,238.4c-0.4,0.8-0.8,1.6-1.4,2.2c-0.6,0.7-1.2,1.3-1.9,1.8c-1.4,1.1-2.9,2.1-4.2,3.2
			c-1.4,1-2.8,2.2-3.9,3.5c-1.2,1.3-2.2,2.7-3,4.3c0.7-1.6,1.7-3.1,2.8-4.5c1.2-1.4,2.5-2.5,3.9-3.6c1.4-1.1,2.9-2,4.3-3.1
			C160.8,241.2,162.1,240,162.9,238.4z"/>
		<path class="st0" d="M146,247.6c-0.1,0.7-0.2,1.4-0.2,2.1c0,0.7,0.1,1.3,0.3,1.9c0.4,1.2,1.1,2.4,1.7,3.7c-0.5-0.5-1-1-1.4-1.6
			c-0.4-0.6-0.8-1.2-1-1.9c-0.2-0.7-0.3-1.5-0.2-2.2C145.4,248.8,145.7,248.2,146,247.6z"/>
		<path class="st0" d="M148.2,258.1c0.5,0.6,0.9,1.4,1.2,2.1c0.3,0.7,0.6,1.5,0.8,2.3c0.2,0.8,0.4,1.6,0.6,2.4
			c0.2,0.8,0.3,1.6,0.3,2.4c-0.6-1.5-1.1-3-1.6-4.6c-0.2-0.8-0.5-1.5-0.7-2.3C148.7,259.6,148.5,258.8,148.2,258.1z"/>
		<path class="st0" d="M120.7,241.9c1,1.1,2.3,1.8,3.6,2.4c1.3,0.6,2.7,1.1,4.1,1.5c1.4,0.5,2.8,0.9,4.1,1.5
			c0.7,0.3,1.3,0.6,1.9,1.1c0.6,0.4,1.2,0.9,1.7,1.4c-1.2-0.9-2.4-1.7-3.8-2.2c-1.4-0.5-2.8-0.9-4.1-1.4c-1.4-0.5-2.8-1-4.1-1.6
			C122.9,243.9,121.6,243,120.7,241.9z"/>
		<path class="st0" d="M110.6,213.2c0.1,1,0.6,1.9,1.1,2.7c0.6,0.8,1.2,1.5,2,2.1c1.4,1.3,3,2.5,4.5,3.8c1.5,1.3,2.9,2.7,3.9,4.4
			c0.5,0.9,0.9,1.8,1.1,2.8c0.2,1,0.1,2,0,2.9c0.2-2-0.3-3.9-1.4-5.5c-1-1.6-2.4-3-3.9-4.3c-1.4-1.3-3-2.5-4.5-3.8
			c-0.7-0.7-1.4-1.4-1.9-2.2C111,215.2,110.6,214.2,110.6,213.2z"/>
		<path class="st0" d="M113.4,187.1c-0.1,1.5,0.2,3,0.8,4.4c0.6,1.4,1.4,2.7,2.2,4c0.8,1.3,1.7,2.6,2.1,4.1c0.2,0.7,0.3,1.5,0.2,2.3
			c-0.1,0.8-0.3,1.5-0.5,2.2c0.3-1.5,0.5-3,0-4.5c-0.5-1.4-1.3-2.7-2.2-4c-0.8-1.3-1.6-2.6-2.2-4.1c-0.3-0.7-0.5-1.5-0.6-2.2
			C113.3,188.7,113.3,187.9,113.4,187.1z"/>
		<path class="st0" d="M123.4,165.8c-0.5,1.4-0.5,2.9-0.2,4.3c0.3,1.4,0.8,2.8,1.3,4.2c0.5,1.4,1,2.8,1.2,4.3c0.1,0.7,0,1.5-0.1,2.2
			c-0.2,0.7-0.5,1.4-0.9,2c0.8-1.3,1-2.8,0.8-4.2c-0.2-1.4-0.7-2.9-1.2-4.2c-0.6-1.4-1.1-2.8-1.3-4.3
			C122.7,168.7,122.7,167.2,123.4,165.8z"/>
		<path class="st0" d="M142.3,162.2c0.1,1.3-0.1,2.5-0.2,3.8l-0.5,3.7c-0.1,1.2-0.3,2.5-0.4,3.7c-0.1,1.2-0.1,2.5,0.2,3.7
			c0.2,0.6,0.4,1.2,0.9,1.4c0.5,0.3,1.1,0.2,1.7,0c1.1-0.4,2.2-1.2,3.1-1.9c1-0.8,1.9-1.6,2.8-2.5c0.9-0.9,1.8-1.8,2.7-2.7
			c-1.6,1.9-3.3,3.8-5.3,5.4c-1,0.8-2,1.6-3.2,2c-0.6,0.2-1.3,0.4-2,0c-0.6-0.3-0.9-1-1.1-1.6c-0.3-1.3-0.3-2.5-0.2-3.8
			c0.1-1.3,0.2-2.5,0.4-3.8l0.6-3.7C142.1,164.7,142.4,163.5,142.3,162.2z"/>
		<path class="st0" d="M130.8,169.5c0.6,0.9,1.1,1.8,1.6,2.7c0.5,0.9,1,1.8,1.6,2.7c0.6,0.9,1.2,1.7,1.9,2.5c0.7,0.8,1.5,1.4,2.4,2
			c-1-0.4-1.9-1-2.6-1.8c-0.8-0.7-1.4-1.6-2-2.5C132.6,173.3,131.7,171.4,130.8,169.5z"/>
		<path class="st0" d="M141.2,184.1c0.3,2.8-0.1,5.6-0.3,8.4c-0.1,1.4-0.2,2.8-0.2,4.2c0,0.7,0,1.4,0.2,2.1c0.1,0.7,0.3,1.4,0.7,1.9
			c0.4,0.6,1,0.8,1.7,0.7c0.7-0.1,1.3-0.4,1.9-0.7c1.2-0.7,2.3-1.6,3.4-2.5c1.1-0.9,2.1-1.9,3.1-2.9c1-1,2-2,2.9-3
			c-1.8,2.1-3.7,4.2-5.8,6.1c-1,0.9-2.1,1.8-3.4,2.6c-0.6,0.3-1.3,0.7-2,0.8c-0.4,0-0.8,0-1.1-0.1c-0.4-0.2-0.7-0.4-0.9-0.7
			c-0.4-0.6-0.6-1.4-0.7-2.1c-0.1-0.7-0.1-1.4-0.1-2.1c0-1.4,0.1-2.8,0.2-4.2l0.4-4.2C141.2,186.9,141.3,185.5,141.2,184.1z"/>
		<path class="st0" d="M123.2,190.1c1,1.1,2,2.2,3,3.3c1,1.1,2,2.2,3.1,3.2c1,1.1,2.1,2.1,3.1,3.2c0.5,0.5,1.1,1,1.6,1.5
			c0.6,0.5,1.1,1,1.8,1.3c-0.7-0.3-1.3-0.8-1.9-1.2c-0.6-0.5-1.1-1-1.7-1.5c-1.1-1-2.1-2.1-3.2-3.1c-1-1.1-2-2.2-3-3.3
			C125,192.4,124.1,191.3,123.2,190.1z"/>
		<path class="st0" d="M122.1,215.3c1.1,0.8,2.3,1.3,3.5,1.9c1.2,0.5,2.5,1,3.7,1.5c1.2,0.5,2.5,1.1,3.6,1.8
			c1.1,0.7,2.3,1.4,3.2,2.4c-0.5-0.4-1.1-0.8-1.6-1.1c-0.6-0.4-1.1-0.7-1.7-1c-1.2-0.6-2.4-1.2-3.6-1.7c-1.2-0.5-2.5-1-3.7-1.6
			C124.3,216.8,123.1,216.2,122.1,215.3z"/>
		<path class="st0" d="M139.6,207.7c0.5,1.3,0.9,2.6,1.1,4c0.2,1.4,0.2,2.7,0.2,4.1c0,1.4-0.2,2.7-0.2,4.1c0,0.7,0,1.4,0.1,2
			c0.1,0.3,0.2,0.6,0.3,0.9c0.2,0.2,0.4,0.4,0.8,0.4c0.6,0.1,1.3-0.1,1.9-0.4c0.6-0.2,1.2-0.5,1.8-0.8c1.2-0.6,2.4-1.3,3.5-2.1
			c2.3-1.4,4.6-3,6.9-4.5c-2.2,1.6-4.4,3.2-6.7,4.7c-1.1,0.8-2.3,1.5-3.5,2.1c-0.6,0.3-1.2,0.6-1.9,0.9c-0.6,0.2-1.3,0.5-2.1,0.4
			c-0.4,0-0.8-0.2-1-0.5c-0.2-0.3-0.3-0.7-0.4-1c-0.1-0.7-0.1-1.4-0.1-2.1l0.3-4.1C140.7,213,140.6,210.3,139.6,207.7z"/>
		<path class="st0" d="M141.7,228.5c0.2,2.3,0.1,4.7,0.2,7c0.1,1.2,0.2,2.3,0.4,3.5c0.2,1.1,0.5,2.3,1.2,3.2
			c0.3,0.4,0.8,0.8,1.3,0.9c0.5,0.2,1.1,0.2,1.7,0.1c1.1-0.2,2.2-0.8,3.2-1.4c1-0.6,1.9-1.3,2.8-2c0.9-0.7,1.8-1.5,2.7-2.3
			c-1.7,1.7-3.4,3.3-5.4,4.6c-1,0.6-2.1,1.2-3.2,1.5c-0.6,0.1-1.2,0.1-1.8,0c-0.6-0.2-1.1-0.6-1.5-1.1c-0.7-1-1.1-2.2-1.3-3.3
			c-0.2-1.2-0.3-2.3-0.3-3.5c0-1.2,0-2.3,0-3.5C141.7,230.8,141.7,229.7,141.7,228.5z"/>
		<path class="st0" d="M126.1,238.4c2.1,0.2,4.1,0.4,6.1,0.9c2,0.5,4,1.2,5.8,2.1c-1-0.3-2-0.6-2.9-0.9c-1-0.3-2-0.6-3-0.8
			C130.2,239.2,128.2,238.9,126.1,238.4z"/>
		<g>
			<polygon class="st12" points="194.3,247.8 206.7,215.7 183.7,228.1 183.7,182.5 206.7,194.9 194.3,162.8 235.9,162.8 
				223.5,194.9 246.4,182.5 246.4,228.1 223.5,215.7 235.9,247.8 			"/>
			<path class="st8" d="M234.2,163.9l-10.7,27.8l-2.2,5.6l5.3-2.9l18.6-10.1v20.9v20.9l-18.6-10.1l-5.3-2.9l2.2,5.6l10.7,27.8h-19.1
				H196l10.7-27.8l2.2-5.6l-5.3,2.9l-18.6,10.1v-20.9v-20.9l18.6,10.1l5.3,2.9l-2.2-5.6L196,163.9h19.1L234.2,163.9 M237.5,161.7
				h-22.4h-22.4l11.8,30.8l-21.9-11.9v24.7V230l21.9-11.9l-11.8,30.8h22.4h22.4l-11.8-30.8l21.9,11.9v-24.7v-24.7l-21.9,11.9
				L237.5,161.7L237.5,161.7z"/>
		</g>
		<path class="st8" d="M229.7,166.9l-12.9,35l-0.7,1.9l1.7-1l24.5-13.5v16v16l-24.5-13.5l-1.7-1l0.7,1.9l12.9,35h-14.6h-14.6
			l12.9-35l0.7-1.9l-1.7,1l-24.5,13.5v-16v-16l24.5,13.5l1.7,1l-0.7-1.9l-12.9-35h14.6L229.7,166.9 M230.8,166.1h-15.7h-15.7
			l13.3,36L187.1,188v17.3v17.3l25.6-14.1l-13.3,36h15.7h15.7l-13.3-36l25.6,14.1v-17.3V188l-25.6,14.1L230.8,166.1L230.8,166.1z"/>
	</g>
</g>
</svg>
