<?xml version="1.0" encoding="utf-8"?>
<!-- Generator: Adobe Illustrator 23.0.1, SVG Export Plug-In . SVG Version: 6.00 Build 0)  -->
<svg version="1.1" xmlns="http://www.w3.org/2000/svg" xmlns:xlink="http://www.w3.org/1999/xlink" x="0px" y="0px"
	 viewBox="0 0 272.6 296.3" style="enable-background:new 0 0 272.6 296.3;" xml:space="preserve">
<style type="text/css">
	.st0{fill:#FFFFFF;}
	.st1{fill:#DE2B19;}
	.st2{fill:#1A171B;}
	.st3{fill:#FEE821;}
	.st4{fill:none;stroke:#1A171B;}
	.st5{fill:#065020;stroke:#1A171B;stroke-width:2;}
	.st6{fill:#7FB839;}
	.st7{fill:#09588E;}
</style>
<g id="Ebene_2">
	<path class="st0" d="M0.7,0.6C4.4,46.8,8.1,93.1,12,139.3c4.2,49.9,11.1,93.4,52.4,126.2c23.3,18.5,36.6,25.3,67.5,27
		c19.7,1.1,46.1-5.8,63.3-16.4c37.6-23.1,58.4-69.5,61.1-111.3c3.5-53.7,6.8-107.4,10.2-161.1C177.9,2.7,89.3,1.6,0.7,0.6z"/>
</g>
<g id="Ebene_1">
	<g id="Rahmen">
		<g id="XMLID_2_">
			<g>
				<path class="st1" d="M257.5,86.3l-6.2,106.5c0,0-24.8,96-113.6,97.8l0-204.3C137.6,86.3,257.5,86.3,257.5,86.3z"/>
				<path class="st2" d="M272.7,0.1l-2.1,10.3l-13.8,182.3c0,0-22.8,103.2-121.4,103.2c-98.7,0-120.6-103.2-120.6-103.2L1.8,10.4
					L0,0L272.7,0.1z M257.7,82.6l4.2-72.3L10.5,10.4l4.1,72.1l0.2,3.7l0,0.2L21,192.8c0,0,23,96.6,112.4,97.8v0.6h4.2v-0.6
					c88.8-1.8,113.6-97.8,113.6-97.8l6.2-106.5L257.7,82.6z"/>
				<path class="st2" d="M257.7,82.4l-0.2,3.8H137.6l0,204.3c-0.8,0-1.7,0-2.5,0c-0.6,0-1.1,0-1.7,0V86.3l-118.5,0l-0.2-3.8H257.7z"
					/>
				<path class="st2" d="M137.6,290.6v0.6h-4.2v-0.6c0.6,0,1.1,0,1.7,0C136,290.6,136.8,290.6,137.6,290.6z"/>
			</g>
		</g>
	</g>
	<g id="Kreuz">
		<polygon class="st2" points="158.2,103 229.3,103 210.1,153.3 245.6,135.5 245.6,207.4 207.9,190.2 226.4,240.5 154.7,240.5 
			175.9,190.2 141,208.1 141,133.9 177.2,152.5 		"/>
	</g>
	<g id="Kreuz_gelb">
		<polygon class="st3" points="166.1,109.2 221.5,109.2 204.3,159.1 240.5,143.6 240.5,200.1 203.3,184 219.8,236.1 161.3,236.1 
			181.6,183.6 145.8,201 145.8,141 182.9,158.9 		"/>
	</g>
	<g id="Kreuz_line">
		<polygon class="st4" points="170.1,111.9 217.3,111.9 198.8,165.3 237.9,148.4 237.9,195.3 198.4,177.9 214.9,232.4 165.9,232.4 
			187.1,177.2 148.5,195.5 148.5,145.9 188,163.7 		"/>
	</g>
	<g id="Blatt_umriss">
		<path class="st5" d="M99,269.9c2.9,1.1-8.4-13.9-7.2-22.2c-1.4-7.7,27.7-17.6,24.7-28.1c-3-10.5-10.3-5.8-11.9-11.3
			s21.8-18,17.8-27.6s-20-3.6-17.5-11.3c2.5-7.7,18.8-21.9,11.6-28.8s-15.3,1-16.5-7.1s13.2-14.1,7.5-21.9s-12.5-1-14.9-2.1
			S96,92,82.9,90.9c-10.9,1.3-12,15-13.4,16.3c-0.5,2.7-12.1-2.9-16.5,1.2s3.1,22.7,2.8,27.6s-12.8-0.3-18.6,4.7
			s10.8,23.7,10.4,28.5s-14,4.6-15.1,15.3s23.2,17.7,20,25.7c-1,7.6-7.8,7.4-6.1,15.6c1.7,8.1,27.1,17.8,29.2,18.9s7.5,4.5,5.9,13.2
			C80.7,262.4,99,269.9,99,269.9"/>
	</g>
	<g id="Ebene_8">
		<path class="st2" d="M84.4,250.9c0,0,0.5-4.5,2.1-2.2c3.8,5.7,1.9-0.3,1.9-0.3s-2.5-12.2-1.3-15.6c1.6-4.6,14.7-12.6,14.7-12.6
			s-12.9,8.2-15.3,6.3c-8.6-6.9-6.8-17.4-4.4-23.2c2.6-6.1,21.1-15.8,21.1-15.8s-16.2,10.4-19.9,7.1c-3.8-3.4-6-19-3.3-21.8
			c9.3-9.5,21.5-22.6,21.5-22.6S84.6,166.4,81,164c-4.6-3-1.7-23.1-0.2-28.2c1.2-4,10.9-12.9,10.9-12.9s-7.3,4.6-9.9,3.2
			c-6.4-3.3-0.3-25.5-0.3-25.5s2.2,23.5-4.8,25.8c-4,1.3-11.9-8.2-11.9-8.2s9.3,13.4,10.7,18.6c1.8,6.6,1.3,18.9,0.2,27.3
			c-0.8,6.1-20.3-13.9-20.3-13.9s16.2,18.8,18.7,26.5c1.5,4.8,4.3,15.5,0,18.1c-5.6,3.4-23.9-8.2-23.9-8.2s20.1,11.6,23.9,18.1
			c2.7,4.6,6.8,16.2,2.7,19.7c-3.8,3.2-19.5-1.6-19.5-1.6s15.3,5.4,18.7,9.4C78.3,234.9,84.4,250.9,84.4,250.9z"/>
	</g>
	<g id="Ebene_9">
		<path class="st6" d="M82.5,99.2c0,0-3.4,29.3-0.7,26.3C83.8,123.2,82.5,99.2,82.5,99.2z"/>
		<path class="st6" d="M54.6,110c0,0-2.7,8.6,0.2,12.5s3.8,10.9,3.8,10.9s0.9-5.8-2.1-11.7S54.6,110,54.6,110z"/>
		<path class="st6" d="M105.5,114.4c0,0,0.7,6.9-3.5,9.6c-4.1,2.6-3.1,10.3-3.1,10.3s-3.2-9,1.7-13.5
			C105.2,116.5,105.5,114.4,105.5,114.4z"/>
		<path class="st6" d="M91.8,123.6c0,0-13.1,8.6-9.1,8.5S91.8,123.6,91.8,123.6z"/>
		<path class="st6" d="M62.8,116.9c0,0,4.8,9.9,11.5,14.6C77.6,133.9,62.8,116.9,62.8,116.9z"/>
		<path class="st6" d="M80.3,135.9c0,0-2.5,31.8-0.7,26.3C83,152.1,80.3,135.9,80.3,135.9z"/>
		<path class="st6" d="M101.2,150.3c0,0-24.1,14.4-18.2,13.9C88.2,163.7,101.2,150.3,101.2,150.3z"/>
		<path class="st6" d="M55.8,151.2c0,0,12.4,17.4,15.5,17.3C73.7,168.4,55.8,151.2,55.8,151.2z"/>
		<path class="st6" d="M79.8,170.6c0,0-2.6,23.8,1.5,23.8C81.9,194.5,79.8,170.6,79.8,170.6z"/>
		<path class="st6" d="M103.8,188c0,0-19.9,10.5-16,9.8C93.4,196.7,103.8,188,103.8,188z"/>
		<path class="st6" d="M49.9,185.7c0,0,18.8,10.5,20.7,10.7C77,197.3,49.9,185.7,49.9,185.7z"/>
		<path class="st6" d="M80.4,202.5c0,0-2.4,21,1.6,21C85,223.4,80.4,202.5,80.4,202.5z"/>
		<path class="st6" d="M56.5,220.8c0,0,15.8,6.5,14.8,4.3C69,220.3,56.5,220.8,56.5,220.8z"/>
		<path class="st6" d="M89.3,225.6c2.3-4.8,11.1-6.2,11.1-6.2S89.9,228.1,89.3,225.6"/>
		<path class="st6" d="M38.1,142.8c0,0,0,6.4,4.2,11.8c4.6,6,5.4,11.3,5.4,11.3s0.7-7.1-3.5-11.5C39.9,149.9,38.1,142.8,38.1,142.8z
			"/>
		<path class="st6" d="M50,228.4c0,0,6.7,5.6,11.4,6.8c5.6,1.4,12.2,5.3,12.2,5.3s-3.6-5.6-10.1-6.6C56.8,232.9,50,228.4,50,228.4z"
			/>
		<path class="st6" d="M114.5,144.7c0,0,1.7,6.4-2.4,9c-4.1,2.6-7,8.5-7,8.5s0.1-6.4,4.9-11C114.4,147,114.5,144.7,114.5,144.7z"/>
		<path class="st6" d="M119.8,185.8c0,0-3.3,5.3-6.4,7.4c-5.3,3.6-10.2,12.1-10.2,12.1s3.5-9.6,9.6-15.1
			C117.5,186,119.8,185.8,119.8,185.8z"/>
		<path class="st6" d="M114.8,223c0,0-0.2,0-3.7,3.5c-5.8,5.9-17,13.2-17,13.2s4.9-5.9,9.8-10.4C108.5,225,114.8,223,114.8,223z"/>
		<path class="st6" d="M85.4,231.7c0,0-1.5,13.6,1.5,16.3C90.3,250.9,85.4,231.7,85.4,231.7z"/>
		<path class="st6" d="M88,253.8c6.7,3.3,5.8,11.2,5.8,11.2S85.8,257.6,88,253.8"/>
		<path class="st6" d="M88.9,96c0,0,1.9,2,1.7,7.5c-0.2,3.9,0.7,7.1,0.7,7.1s-1.8-2.4-2-7.3C89,98.6,88.9,96,88.9,96z"/>
		<path class="st6" d="M35.7,186.7c0,0,3.3,5.3,6.4,7.4c5.3,3.6,11.4,10.2,11.4,10.2s-3.3-6.6-9.5-12.2
			C39.4,188,35.7,186.7,35.7,186.7z"/>
	</g>
	<g id="Karo">
		<g id="XMLID_1_">
			<g>
				<polygon class="st7" points="261.9,10.3 260.2,40 238.4,38.4 221.4,10.3 221.4,10.3 				"/>
				<polygon class="st7" points="258.4,71.2 258.4,71.3 213.7,67.7 193.4,35 238.4,38.4 				"/>
				<polygon class="st7" points="213.7,67.7 222.9,82.4 178,82.4 166.6,64 				"/>
				<polygon class="st7" points="193.4,35 146.5,31.5 133.5,10.3 178,10.3 				"/>
				<polygon class="st7" points="146.5,31.5 166.6,64 123.7,60.6 103.1,28.2 				"/>
				<polygon class="st7" points="123.7,60.6 137.6,82.4 91.3,82.4 75.3,56.7 				"/>
				<polygon class="st7" points="91.8,10.4 103.1,28.2 55.5,24.6 46.6,10.4 91.8,10.4 				"/>
				<polygon class="st7" points="55.5,24.6 75.3,56.7 30.2,53.1 11.1,21.3 				"/>
				<polygon class="st7" points="30.2,53.1 47.7,82.4 14.6,82.4 12.9,51.8 13,51.8 				"/>
			</g>
			<g>
				<polyline class="st4" points="258.4,71.3 257.7,82.4 222.9,82.4 178,82.4 137.6,82.4 91.3,82.4 47.7,82.4 14.6,82.4 12.9,51.8 
					11.1,21.3 10.5,10.4 46.6,10.4 91.8,10.4 133.5,10.3 178,10.3 221.4,10.3 261.9,10.3 260.2,40 258.4,71.2 				"/>
				<polyline class="st4" points="46.5,10.3 46.6,10.4 55.5,24.6 75.3,56.7 91.3,82.4 				"/>
				<polyline class="st4" points="91.8,10.4 103.1,28.2 123.7,60.6 137.6,82.4 				"/>
				<polyline class="st4" points="133.4,10.3 133.5,10.3 146.5,31.5 166.6,64 178,82.4 				"/>
				<polyline class="st4" points="178,10.3 193.4,35 213.7,67.7 222.9,82.4 				"/>
				<polyline class="st4" points="221.4,10.3 238.4,38.4 258.4,71.2 258.4,71.3 				"/>
				<polyline class="st4" points="11.1,21.3 55.5,24.6 103.1,28.2 146.5,31.5 193.4,35 238.4,38.4 260.2,40 				"/>
				<polyline class="st4" points="13,51.8 30.2,53.1 75.3,56.7 123.7,60.6 166.6,64 213.7,67.7 258.4,71.3 				"/>
				<polyline class="st4" points="47.7,82.4 30.2,53.1 11.1,21.3 				"/>
			</g>
		</g>
	</g>
</g>
</svg>
