<?xml version="1.0" encoding="utf-8"?>
<!-- Generator: Adobe Illustrator 23.0.1, SVG Export Plug-In . SVG Version: 6.00 Build 0)  -->
<svg version="1.1" id="Ebene_2" xmlns="http://www.w3.org/2000/svg" xmlns:xlink="http://www.w3.org/1999/xlink" x="0px" y="0px"
	 viewBox="0 0 850.4 194.1" style="enable-background:new 0 0 850.4 194.1;" xml:space="preserve">
<style type="text/css">
	.st0{fill:#D8E8C0;}
	.st1{fill:#B9D588;}
	.st2{fill:#8DC043;}
</style>
<g>
	<path class="st0" d="M101.4,54c49.1-1.9,51.7-3.8,93.1-3.2s26.8-0.6,70.8,2.6s54.2,5.1,109.7,12.1s72.7,9.6,98.2,12.1
		s63.2,5.7,86.1,7s57.4,0.6,78.5,0s53-1.9,65.7-3.2s42.7-5.7,59.3-8.3c16.6-2.6,40.2-7.7,56.8-12.8c16.6-5.1,30.6-9.7,30.6-9.7
		v112.4H0v-97C0,66.1,52.3,55.9,101.4,54z"/>
	<path class="st1" d="M101.4,69.9c49.1-1.9,51.7-3.8,93.1-3.2s26.8-0.6,70.8,2.6s54.2,5.1,109.7,12.1s72.7,9.6,98.2,12.1
		s63.2,5.7,86.1,7c23,1.3,57.4,0.6,78.5,0c21.1-0.6,53-1.9,65.7-3.2s42.7-5.7,59.3-8.3c16.6-2.6,40.2-7.7,56.8-12.8
		c16.6-5.1,30.6-9.7,30.6-9.7V179H0V82C0,82,52.3,71.8,101.4,69.9z"/>
	<path class="st2" d="M101.4,85.8c49.1-1.9,51.7-3.8,93.1-3.2s26.8-0.6,70.8,2.6c44,3.2,54.2,5.1,109.7,12.1s72.7,9.6,98.2,12.1
		s63.2,5.7,86.1,7s57.4,0.6,78.5,0s53-1.9,65.7-3.2s42.7-5.7,59.3-8.3c16.6-2.6,40.2-7.7,56.8-12.8c16.6-5.1,30.6-9.7,30.6-9.7
		v112.4H0v-97C0,97.9,52.3,87.7,101.4,85.8z"/>
</g>
</svg>
