<svg version="1.1" id="Ebene_1" xmlns="http://www.w3.org/2000/svg" xmlns:xlink="http://www.w3.org/1999/xlink" x="0px" y="0px"
	 viewBox="0 0 850.4 194.1" style="enable-background:new 0 0 850.4 194.1;" xml:space="preserve">
<style type="text/css">
	.st0{fill:#FFFFFF;}
	.st1{fill:#D8E8C0;}
	.st2{fill:#B9D588;}
	.st3{fill:#8DC043;}
</style>
<g>
	
		<rect x="-0.4" y="0.6" transform="matrix(-1 -3.812326e-07 3.812326e-07 -1 849.8834 195.4277)" class="st0" width="850.7" height="194.2"/>
	<path class="st1" d="M748.5,140.5c-49.1,1.9-51.7,3.8-93.1,3.2c-41.4-0.6-26.8,0.6-70.8-2.6S530.4,136,474.9,129
		c-55.5-7-72.7-9.6-98.2-12.1c-25.5-2.5-63.2-5.7-86.1-7c-22.9-1.3-57.4-0.6-78.5,0c-21.1,0.6-53,1.9-65.7,3.2
		c-12.7,1.3-42.7,5.7-59.3,8.3c-16.6,2.6-40.2,7.7-56.8,12.8s-30.6,9.7-30.6,9.7l0-112.4l850.2,0l0,97
		C849.9,128.4,797.6,138.6,748.5,140.5z"/>
	<path class="st2" d="M748.5,124.6c-49.1,1.9-51.7,3.8-93.1,3.2c-41.4-0.6-26.8,0.6-70.8-2.6c-44-3.2-54.2-5.1-109.7-12.1
		c-55.5-7-72.7-9.6-98.2-12.1c-25.5-2.5-63.2-5.7-86.1-7c-23-1.3-57.4-0.6-78.5,0c-21.1,0.6-53,1.9-65.7,3.2
		c-12.7,1.3-42.7,5.7-59.3,8.3c-16.6,2.6-40.2,7.7-56.8,12.8S-0.3,128-0.3,128l0-112.5l850.2,0l0,97
		C849.9,112.5,797.6,122.7,748.5,124.6z"/>
	<path class="st3" d="M748.5,108.7c-49.1,1.9-51.7,3.8-93.1,3.2c-41.4-0.6-26.8,0.6-70.8-2.6s-54.2-5.1-109.7-12.1
		c-55.5-7-72.7-9.6-98.2-12.1c-25.5-2.5-63.2-5.7-86.1-7c-22.9-1.3-57.4-0.6-78.5,0c-21.1,0.6-53,1.9-65.7,3.2
		c-12.7,1.3-42.7,5.7-59.3,8.3c-16.6,2.6-40.2,7.7-56.8,12.8s-30.6,9.7-30.6,9.7l0-112.4l850.2,0v97
		C849.9,96.6,797.6,106.8,748.5,108.7z"/>
</g>
</svg>
