<?xml version="1.0" encoding="utf-8"?>
<!-- Generator: Adobe Illustrator 24.0.1, SVG Export Plug-In . SVG Version: 6.00 Build 0)  -->
<svg version="1.1" id="Location" xmlns="http://www.w3.org/2000/svg" xmlns:xlink="http://www.w3.org/1999/xlink" x="0px" y="0px"
	 viewBox="0 0 314.1 314.1" style="enable-background:new 0 0 314.1 314.1;" xml:space="preserve">
<style type="text/css">
	.st0{fill:#FFFFFF;}
</style>
<path class="st0" d="M157.5,78.3c-43.8,0-79.2,35.4-79.2,79.2s35.4,79.2,79.2,79.2s79.2-35.4,79.2-79.2S201.4,78.3,157.5,78.3z
	 M157.5,209c-28.3,0-51.5-23.1-51.5-51.5s23.1-51.5,51.5-51.5c28.4,0,51.5,23.1,51.5,51.5S185.9,209,157.5,209L157.5,209z M258.5,75
	c0,10.3-8.3,18.5-18.5,18.5c-10.3,0-18.5-8.3-18.5-18.5s8.3-18.5,18.5-18.5S258.5,64.8,258.5,75z M310.9,93.8
	c-1.2-24.7-6.8-46.7-25-64.7c-18.1-18.1-40-23.7-64.7-25c-25.5-1.4-102-1.4-127.5,0C69.1,5.3,47.2,10.9,29,29S5.3,69,4.1,93.7
	c-1.4,25.5-1.4,102,0,127.5c1.2,24.7,6.8,46.7,25,64.7c18.1,18.1,40,23.7,64.7,25c25.5,1.4,102,1.4,127.5,0
	c24.7-1.2,46.7-6.8,64.7-25c18.1-18.1,23.7-40,25-64.7C312.4,195.7,312.4,119.3,310.9,93.8L310.9,93.8z M278,248.5
	c-5.4,13.5-15.8,23.9-29.4,29.4c-20.3,8.1-68.6,6.2-91.1,6.2s-70.8,1.8-91.1-6.2c-13.5-5.4-23.9-15.8-29.4-29.4
	c-8.1-20.3-6.2-68.6-6.2-91.1s-1.8-70.8,6.2-91.1C42.5,52.9,52.9,42.5,66.5,37c20.3-8.1,68.6-6.2,91.1-6.2s70.8-1.8,91.1,6.2
	c13.5,5.4,23.9,15.8,29.4,29.4c8.1,20.3,6.2,68.6,6.2,91.1S286,228.3,278,248.5z"/>
</svg>
