<?xml version="1.0" encoding="utf-8"?>
<!-- Generator: Adobe Illustrator 23.0.1, SVG Export Plug-In . SVG Version: 6.00 Build 0)  -->
<svg version="1.1" id="Phone" xmlns="http://www.w3.org/2000/svg" xmlns:xlink="http://www.w3.org/1999/xlink" x="0px" y="0px"
	 viewBox="0 0 314.1 314.1" style="enable-background:new 0 0 314.1 314.1;" xml:space="preserve">
<style type="text/css">
	.st0{fill:#FFFFFF;}
</style>
<path class="st0" d="M293,78.5C249.6,3.4,153.6-22.3,78.5,21.1C3.4,64.4-22.3,160.4,21.1,235.5c43.3,75.1,139.4,100.8,214.5,57.5
	C310.6,249.6,336.4,153.6,293,78.5z M219.8,265.8c-60.1,34.7-136.9,14.1-171.6-46S34.1,82.9,94.2,48.2s136.9-14.1,171.6,46
	S279.9,231.1,219.8,265.8z"/>
<path class="st0" d="M231.2,201.6L207.7,178c-4.7-4.7-12.4-4.5-17.3,0.3l-11.8,11.8c-0.7-0.4-1.5-0.8-2.3-1.3
	c-7.5-4.1-17.7-9.8-28.5-20.6s-16.5-21.1-20.7-28.6c-0.4-0.8-0.9-1.6-1.3-2.3l8-7.9l3.9-3.9c4.9-4.9,5-12.6,0.3-17.3l-23.5-23.5
	c-4.7-4.7-12.4-4.5-17.3,0.3l-6.6,6.7l0.2,0.2c-2.2,2.8-4.1,6.1-5.5,9.6c-1.3,3.4-2.1,6.6-2.4,9.8c-3.1,25.7,8.7,49.3,40.6,81.2
	c44.1,44.1,79.7,40.8,81.2,40.6c3.3-0.4,6.5-1.2,9.8-2.5c3.5-1.4,6.8-3.2,9.6-5.4l0.1,0.1l6.7-6.6
	C235.7,214,235.9,206.3,231.2,201.6z"/>
</svg>
