<?xml version="1.0" encoding="utf-8"?>
<!-- Generator: Adobe Illustrator 24.0.1, SVG Export Plug-In . SVG Version: 6.00 Build 0)  -->
<svg version="1.1" id="Location" xmlns="http://www.w3.org/2000/svg" xmlns:xlink="http://www.w3.org/1999/xlink" x="0px" y="0px"
	 viewBox="0 0 314.1 314.1" style="enable-background:new 0 0 314.1 314.1;" xml:space="preserve">
<style type="text/css">
	.st0{fill:#FFFFFF;}
</style>
<path class="st0" d="M303.7,85.8c-3.5-13.3-13.9-23.8-27.2-27.3c-24-6.5-120-6.5-120-6.5s-96,0-120,6.5C23.4,62.1,13,72.5,9.4,85.8
	C3,109.9,3,160.2,3,160.2s0,50.3,6.4,74.4c3.5,13.3,13.9,23.3,27.2,26.9c24,6.5,120,6.5,120,6.5s96,0,120-6.5
	c13.2-3.6,23.6-13.6,27.2-26.9c6.4-24.1,6.4-74.4,6.4-74.4S310.1,109.9,303.7,85.8z M125.2,205.9v-91.3l80.3,45.7L125.2,205.9
	L125.2,205.9z"/>
</svg>
